<svg width="24" height="24" viewBox="0 0 24 24" fill="none" xmlns="http://www.w3.org/2000/svg">
<g clip-path="url(#clip0_11230_8386)">
<path d="M20.9245 16.2141L20.9145 18.8392C20.9145 19.0492 20.7795 19.2542 20.5095 19.4092L13.0242 23.7594C12.9492 23.8044 12.8742 23.8394 12.7892 23.8694C12.4042 24.0144 11.9242 24.0394 11.5042 23.9394C11.3392 23.9044 11.1792 23.8394 11.0392 23.7594L3.50889 19.4142C3.22888 19.2542 3.08888 19.0442 3.09388 18.8342L3.09888 16.2041L20.9245 16.2141Z" fill="#DEDFFB"/>
<path d="M10.7551 16.2005L3.17488 16.4665C3.01038 16.184 3.11988 15.86 3.5069 15.6364L10.3941 11.6328L10.7551 16.2005Z" fill="#FFD06C"/>
<path d="M10.8376 17.25L11.1487 21.1856C11.1145 21.1701 11.0811 21.1529 11.0487 21.1341L4.69493 17.4645L10.8376 17.25Z" fill="#78E75A"/>
<path d="M12.6432 17.1859L20.28 16.9199L13.0287 21.1341C13.0056 21.1474 12.9819 21.1597 12.9577 21.1711L12.6432 17.1859Z" fill="#B28AFD"/>
<path d="M20.7785 15.8514L12.5612 16.1399L12.1582 11.0547C12.4582 11.0762 12.7462 11.1532 12.9752 11.2857L20.5105 15.6353C20.6235 15.6998 20.7125 15.7739 20.7785 15.8514Z" fill="#57B3FE"/>
<path d="M20.5155 16.7831L20.2805 16.9201L12.6432 17.1861L12.9577 21.1712C12.9077 21.1987 12.8527 21.2212 12.7977 21.2407C12.4142 21.3858 11.9327 21.4098 11.5127 21.3118C11.3868 21.2841 11.2646 21.2418 11.1487 21.1857L10.8376 17.2506L4.69493 17.4646L3.51339 16.7831C3.35339 16.6911 3.24088 16.5831 3.17488 16.4671L10.7551 16.2011L10.3941 11.6334L10.9942 11.2854C11.2697 11.1239 11.6322 11.0454 11.9937 11.0469C12.0487 11.0469 12.1032 11.0499 12.1582 11.0549L12.5612 16.1401L20.7785 15.8511C21.038 16.1541 20.951 16.5296 20.5155 16.7831Z" fill="#1D2943"/>
<path d="M12.2087 16.9197L9.94361 15.6031L8.41806 13.8096L10.6831 15.1256L12.2087 16.9197Z" fill="#E93565"/>
<path d="M16.0193 1.67891C15.0343 1.10889 13.9922 1.4864 12.4872 2.35643C10.3121 3.61147 8.40206 6.11656 7.54703 8.73665C7.22702 9.72168 7.06701 10.4702 7.06701 11.4052C7.07201 13.1103 7.37902 14.3093 8.34905 14.8744L6.08398 13.5593C5.11394 12.9943 4.50892 11.7943 4.50392 10.0892C4.50392 6.57457 6.96251 2.43843 9.89911 0.743874C11.4042 -0.126156 12.7692 -0.206159 13.7542 0.363861L16.0193 1.67891Z" fill="#E93565"/>
<path d="M12.1662 2.05704C15.1573 0.330478 17.5869 1.71753 17.5964 5.15164C17.6049 7.98174 15.9678 11.3209 13.7192 13.3739L12.2087 16.9191L10.6826 15.1255C8.42956 15.672 6.778 14.2325 6.77 11.4024C6.76 7.96824 9.17659 3.7831 12.1662 2.05704Z" fill="#F45170"/>
<path d="M16.5248 5.83994C16.5323 8.59504 14.5948 11.9512 12.1957 13.3347C9.79861 14.7197 7.84904 13.6077 7.84204 10.8531C7.83304 8.09852 9.77011 4.7444 12.1692 3.35886C14.5668 1.97531 16.5158 3.08535 16.5248 5.83994Z" fill="white"/>
<path d="M12.1782 5.14C12.209 5.12016 12.2458 5.11183 12.2822 5.1165L14.4923 5.54202C14.5783 5.55902 14.6013 5.67852 14.5448 5.81002C14.5133 5.886 14.4592 5.95042 14.3898 5.99453C14.359 6.01442 14.3221 6.02274 14.2858 6.01803L13.6687 5.89953L12.1792 5.61302L10.6966 7.61509L10.0816 8.44512C10.0541 8.48375 10.0191 8.51642 9.97862 8.54112C9.91862 8.57612 9.85912 8.57662 9.82362 8.53612C9.76511 8.47112 9.78812 8.32461 9.87362 8.20861L12.0747 5.23651C12.1024 5.19785 12.1376 5.1652 12.1782 5.1405V5.14Z" fill="#E93565"/>
<path d="M14.3058 8.89794C14.4248 8.82893 14.5213 8.88394 14.5218 9.02094C14.5179 9.09553 14.4964 9.16813 14.459 9.2328C14.4216 9.29747 14.3695 9.35235 14.3068 9.39295L10.0796 11.8335C9.96062 11.9025 9.86412 11.8475 9.86362 11.7105C9.86362 11.6425 9.88712 11.5665 9.92662 11.499C9.96269 11.4334 10.015 11.3781 10.0786 11.3385L10.1506 11.297L14.2333 8.93944L14.3058 8.89794Z" fill="#72D561"/>
<path d="M12.1792 5.6123L13.6688 5.89881L14.2253 6.00582L14.2333 8.93942L10.1506 11.297L10.1421 8.3634L10.6967 7.61437L12.1792 5.6123Z" fill="#FFD06C"/>
<path d="M13.2057 7.69629L13.2092 8.86583L12.1917 9.45335L12.1882 8.28381L13.2057 7.69629Z" fill="#678AEE"/>
<path d="M12.1917 9.49086C12.1867 9.49092 12.1818 9.49 12.1772 9.48815C12.1726 9.48629 12.1684 9.48354 12.1649 9.48005C12.1613 9.47656 12.1585 9.47241 12.1566 9.46782C12.1547 9.46324 12.1537 9.45832 12.1537 9.45336L12.1502 8.28332C12.1502 8.27032 12.1577 8.25732 12.1692 8.25082L13.1867 7.6633C13.1925 7.65998 13.199 7.65822 13.2056 7.6582C13.2123 7.65819 13.2188 7.65991 13.2246 7.66319C13.2303 7.66648 13.2351 7.67122 13.2385 7.67694C13.2419 7.68266 13.2437 7.68916 13.2437 7.6958L13.2472 8.86534C13.2472 8.87202 13.2455 8.87859 13.2422 8.88439C13.2388 8.89018 13.234 8.895 13.2282 8.89834L12.2107 9.48586C12.2049 9.48912 12.1984 9.49084 12.1917 9.49086ZM12.2262 8.30582L12.2292 9.38735L13.1712 8.84334L13.1682 7.7613L12.2262 8.30582Z" fill="white"/>
<path d="M13.2027 6.52734L13.2057 7.69638L12.1882 8.2839L12.1847 7.11486L13.2027 6.52734Z" fill="#678AEE"/>
<path d="M12.1882 8.32163C12.1832 8.32169 12.1783 8.32077 12.1737 8.31892C12.1691 8.31706 12.1649 8.31431 12.1613 8.31082C12.1578 8.30733 12.155 8.30318 12.1531 8.2986C12.1512 8.29401 12.1502 8.28909 12.1502 8.28413L12.1472 7.11459C12.1472 7.10109 12.1542 7.08859 12.1657 7.08159L13.1837 6.49407C13.1895 6.49085 13.196 6.48919 13.2026 6.48926C13.2092 6.48933 13.2157 6.49111 13.2214 6.49445C13.2271 6.49778 13.2318 6.50254 13.2351 6.50826C13.2384 6.51398 13.2402 6.52046 13.2402 6.52707L13.2437 7.69611C13.2437 7.70279 13.242 7.70937 13.2387 7.71516C13.2353 7.72095 13.2305 7.72577 13.2247 7.72911L12.2072 8.31663C12.2014 8.31989 12.1948 8.32161 12.1882 8.32163ZM12.2232 7.13659L12.2257 8.21813L13.1677 7.67461L13.1647 6.59257L12.2232 7.13659Z" fill="white"/>
<path d="M12.1882 8.2832L12.1917 9.45274L11.1732 10.0408L11.1702 8.87122L12.1882 8.2832Z" fill="#678AEE"/>
<path d="M11.1732 10.0788C11.1682 10.0788 11.1633 10.0779 11.1587 10.076C11.154 10.0742 11.1499 10.0714 11.1463 10.0679C11.1428 10.0645 11.14 10.0603 11.1381 10.0557C11.1361 10.0511 11.1352 10.0462 11.1352 10.0412L11.1322 8.87171C11.1322 8.85821 11.1392 8.84571 11.1512 8.83871L12.1692 8.25119C12.1749 8.24787 12.1815 8.24611 12.1881 8.24609C12.1947 8.24608 12.2013 8.2478 12.207 8.25108C12.2128 8.25437 12.2176 8.25911 12.221 8.26483C12.2243 8.27055 12.2261 8.27705 12.2262 8.28369L12.2292 9.45323C12.2293 9.45987 12.2276 9.4664 12.2243 9.47219C12.2211 9.47798 12.2164 9.48282 12.2107 9.48623L11.1922 10.0737C11.1864 10.077 11.1798 10.0787 11.1732 10.0788ZM11.2082 8.89371L11.2112 9.97575L12.1537 9.43123L12.1502 8.34919L11.2082 8.89371Z" fill="white"/>
<path d="M12.1847 7.11426L12.1882 8.2833L11.1702 8.87132L11.1667 7.70228L12.1847 7.11426Z" fill="#678AEE"/>
<path d="M11.1702 8.90933C11.1652 8.90939 11.1603 8.90847 11.1557 8.90662C11.1511 8.90476 11.1469 8.90201 11.1433 8.89852C11.1398 8.89503 11.137 8.89088 11.1351 8.88629C11.1331 8.88171 11.1322 8.87679 11.1322 8.87183L11.1287 7.70179C11.1287 7.68879 11.1362 7.67628 11.1477 7.66928L12.1657 7.08126C12.1714 7.07795 12.178 7.07619 12.1846 7.07617C12.1912 7.07615 12.1978 7.07787 12.2035 7.08116C12.2093 7.08445 12.2141 7.08919 12.2175 7.09491C12.2208 7.10063 12.2226 7.10713 12.2227 7.11377L12.2262 8.28381C12.2261 8.29041 12.2243 8.29688 12.221 8.30257C12.2177 8.30827 12.2129 8.31301 12.2072 8.31631L11.1892 8.90433C11.1834 8.90759 11.1768 8.90931 11.1702 8.90933ZM11.2052 7.72429L11.2077 8.80582L12.1502 8.2618L12.1472 7.17977L11.2052 7.72429Z" fill="white"/>
<path d="M11.0466 6.28418L11.0491 6.8422L10.4171 7.58472L10.4146 6.64919L11.0466 6.28418Z" fill="#E93565"/>
<path d="M11.2697 5.61914L11.2712 6.15416L11.0582 6.27716L10.4031 6.65568L10.1911 6.77768L10.1896 6.24266L11.2697 5.61914Z" fill="#F45170"/>
<path d="M8.30606 6.07255C7.92404 6.07255 7.57153 6.22106 7.32702 6.46957C7.19976 6.59657 7.09886 6.74747 7.03013 6.9136C6.96139 7.07973 6.92618 7.25781 6.92651 7.4376C6.92651 6.68108 6.30649 6.07255 5.55046 6.07255C5.92497 6.07255 6.27349 5.91705 6.52549 5.67604C6.7705 5.43453 6.92651 5.08602 6.92651 4.70801C6.92651 5.08602 7.08201 5.43453 7.32652 5.67604C7.57153 5.91705 7.92404 6.07255 8.30606 6.07255Z" fill="white"/>
</g>
<defs>
<clipPath id="clip0_11230_8386">
<rect width="24" height="24" fill="white"/>
</clipPath>
</defs>
</svg>
