<svg width="40" height="40" viewBox="0 0 40 40" fill="none" xmlns="http://www.w3.org/2000/svg">
<path d="M0.5 16C0.5 7.43959 7.43959 0.5 16 0.5H24C32.5604 0.5 39.5 7.43959 39.5 16V24C39.5 32.5604 32.5604 39.5 24 39.5H16C7.43959 39.5 0.5 32.5604 0.5 24V16Z" fill="white"/>
<path d="M0.5 16C0.5 7.43959 7.43959 0.5 16 0.5H24C32.5604 0.5 39.5 7.43959 39.5 16V24C39.5 32.5604 32.5604 39.5 24 39.5H16C7.43959 39.5 0.5 32.5604 0.5 24V16Z" stroke="url(#paint0_linear_11337_10461)"/>
<path d="M23.8488 10H23.9911C24.1053 11.4104 23.5669 12.4643 22.9126 13.2275C22.2706 13.9854 21.3915 14.7205 19.9697 14.609C19.8748 13.2187 20.4141 12.243 21.0675 11.4816C21.6734 10.772 22.7844 10.1405 23.8488 10ZM28.1531 24.6805V24.7201C27.7535 25.9303 27.1835 26.9675 26.4879 27.93C25.853 28.8038 25.0748 29.9798 23.6855 29.9798C22.4849 29.9798 21.6875 29.2078 20.4571 29.1868C19.1556 29.1657 18.4398 29.8323 17.2498 30H16.844C15.9702 29.8735 15.265 29.1815 14.7512 28.5579C13.2363 26.7154 12.0656 24.3354 11.8478 21.2897V20.3948C11.94 18.215 12.9991 16.4427 14.4069 15.5838C15.1499 15.1271 16.1713 14.7381 17.3086 14.912C17.796 14.9875 18.294 15.1543 18.7305 15.3195C19.1441 15.4784 19.6614 15.7603 20.1515 15.7454C20.4834 15.7357 20.8137 15.5627 21.1483 15.4407C22.1284 15.0867 23.0892 14.681 24.3556 14.8716C25.8776 15.1017 26.9578 15.7779 27.6252 16.8212C26.3377 17.6406 25.3199 18.8754 25.4938 20.9841C25.6483 22.8995 26.7619 24.0201 28.1531 24.6805Z" fill="black"/>
<defs>
<linearGradient id="paint0_linear_11337_10461" x1="20" y1="0" x2="20" y2="40" gradientUnits="userSpaceOnUse">
<stop/>
<stop offset="1" stop-color="#1F1F1F"/>
</linearGradient>
</defs>
</svg>
