<svg width="24" height="24" viewBox="0 0 24 24" fill="none" xmlns="http://www.w3.org/2000/svg">
<g clip-path="url(#clip0_303_6563)">
<path d="M6.83002 24C6.96162 24.0008 7.09209 23.9755 7.21392 23.9258C7.33576 23.876 7.44658 23.8027 7.54002 23.71L15.71 15.54C16.1756 15.0755 16.5451 14.5238 16.7971 13.9163C17.0492 13.3089 17.179 12.6577 17.179 12C17.179 11.3423 17.0492 10.6911 16.7971 10.0837C16.5451 9.47621 16.1756 8.92446 15.71 8.46L7.54002 0.290002C7.44678 0.196764 7.33609 0.122803 7.21427 0.0723426C7.09244 0.0218822 6.96188 -0.00408935 6.83002 -0.00408936C6.69816 -0.00408936 6.56759 0.0218822 6.44577 0.0723426C6.32395 0.122803 6.21326 0.196764 6.12002 0.290002C6.02678 0.383241 5.95282 0.493931 5.90236 0.615753C5.8519 0.737575 5.82593 0.868143 5.82593 1C5.82593 1.13186 5.8519 1.26243 5.90236 1.38425C5.95282 1.50607 6.02678 1.61676 6.12002 1.71L14.29 9.88C14.8518 10.4425 15.1674 11.205 15.1674 12C15.1674 12.795 14.8518 13.5575 14.29 14.12L6.12002 22.29C6.02629 22.383 5.95189 22.4936 5.90112 22.6154C5.85036 22.7373 5.82422 22.868 5.82422 23C5.82422 23.132 5.85036 23.2627 5.90112 23.3846C5.95189 23.5064 6.02629 23.617 6.12002 23.71C6.21346 23.8027 6.32427 23.876 6.44611 23.9258C6.56795 23.9755 6.69841 24.0008 6.83002 24Z" fill="#E8F6FD"/>
</g>
<defs>
<clipPath id="clip0_303_6563">
<rect width="24" height="24" fill="white" transform="matrix(-1 0 0 1 24 0)"/>
</clipPath>
</defs>
</svg>
