<svg width="32" height="32" viewBox="0 0 32 32" fill="none" xmlns="http://www.w3.org/2000/svg">
<g clip-path="url(#clip0_141_643)">
<path d="M4 13.3333C4 14.559 4.24141 15.7727 4.71046 16.905C5.1795 18.0374 5.86699 19.0663 6.73367 19.933C7.60035 20.7997 8.62925 21.4872 9.76162 21.9562C10.894 22.4253 12.1077 22.6667 13.3333 22.6667C14.559 22.6667 15.7727 22.4253 16.905 21.9562C18.0374 21.4872 19.0663 20.7997 19.933 19.933C20.7997 19.0663 21.4872 18.0374 21.9562 16.905C22.4253 15.7727 22.6667 14.559 22.6667 13.3333C22.6667 12.1077 22.4253 10.894 21.9562 9.76162C21.4872 8.62925 20.7997 7.60035 19.933 6.73367C19.0663 5.86699 18.0374 5.1795 16.905 4.71046C15.7727 4.24141 14.559 4 13.3333 4C12.1077 4 10.894 4.24141 9.76162 4.71046C8.62925 5.1795 7.60035 5.86699 6.73367 6.73367C5.86699 7.60035 5.1795 8.62925 4.71046 9.76162C4.24141 10.894 4 12.1077 4 13.3333Z" stroke="#949494" stroke-width="1.5" stroke-linecap="round" stroke-linejoin="round"/>
<path d="M28 28L20 20" stroke="#949494" stroke-width="1.5" stroke-linecap="round" stroke-linejoin="round"/>
<path d="M13.3335 17.3334V17.3467" stroke="#949494" stroke-width="1.5" stroke-linecap="round" stroke-linejoin="round"/>
<path d="M13.3335 13.3334C13.6691 13.3335 13.9993 13.2493 14.2938 13.0883C14.5883 12.9273 14.8375 12.6948 15.0186 12.4122C15.1996 12.1296 15.3066 11.806 15.3297 11.4712C15.3529 11.1364 15.2914 10.8012 15.1509 10.4964C15.0105 10.1916 14.7956 9.92702 14.526 9.72707C14.2565 9.52713 13.941 9.39823 13.6085 9.35224C13.2761 9.30625 12.9374 9.34466 12.6237 9.46393C12.31 9.58319 12.0314 9.77948 11.8135 10.0347" stroke="#949494" stroke-width="1.5" stroke-linecap="round" stroke-linejoin="round"/>
</g>
<defs>
<clipPath id="clip0_141_643">
<rect width="32" height="32" fill="white"/>
</clipPath>
</defs>
</svg>
