<svg width="40" height="40" viewBox="0 0 40 40" fill="none" xmlns="http://www.w3.org/2000/svg">
<path d="M0.5 16C0.5 7.43959 7.43959 0.5 16 0.5H24C32.5604 0.5 39.5 7.43959 39.5 16V24C39.5 32.5604 32.5604 39.5 24 39.5H16C7.43959 39.5 0.5 32.5604 0.5 24V16Z" fill="white"/>
<path d="M0.5 16C0.5 7.43959 7.43959 0.5 16 0.5H24C32.5604 0.5 39.5 7.43959 39.5 16V24C39.5 32.5604 32.5604 39.5 24 39.5H16C7.43959 39.5 0.5 32.5604 0.5 24V16Z" stroke="url(#paint0_linear_11025_5406)"/>
<path d="M29.2449 18.2611L21.087 18.2607C20.7268 18.2607 20.4348 18.5527 20.4348 18.9129V21.519C20.4348 21.8791 20.7268 22.1712 21.087 22.1712H25.681C25.1779 23.4767 24.239 24.57 23.0411 25.2647L25 28.6557C28.1423 26.8384 30 23.6497 30 20.0803C30 19.572 29.9625 19.2087 29.8876 18.7996C29.8307 18.4888 29.5608 18.2611 29.2449 18.2611Z" fill="#167EE6"/>
<path d="M20 26.0871C17.7518 26.0871 15.7891 24.8587 14.735 23.041L11.3442 24.9955C13.0698 27.9862 16.3023 30.0001 20 30.0001C21.8139 30.0001 23.5255 29.5117 25 28.6606V28.6559L23.0411 25.2649C22.1451 25.7846 21.1082 26.0871 20 26.0871Z" fill="#12B347"/>
<path d="M25 28.6603V28.6557L23.0411 25.2646C22.1451 25.7843 21.1083 26.0868 20 26.0868V29.9998C21.8139 29.9998 23.5256 29.5114 25 28.6603Z" fill="#0F993E"/>
<path d="M13.913 20.0002C13.913 18.8921 14.2155 17.8553 14.735 16.9593L11.3442 15.0049C10.4884 16.4747 10 18.1816 10 20.0002C10 21.8188 10.4884 23.5258 11.3442 24.9956L14.735 23.0411C14.2155 22.1452 13.913 21.1084 13.913 20.0002Z" fill="#FFD500"/>
<path d="M20 13.913C21.4661 13.913 22.8127 14.434 23.8645 15.3005C24.124 15.5143 24.5012 15.4988 24.7389 15.2611L26.5853 13.4146C26.855 13.145 26.8358 12.7035 26.5477 12.4536C24.7854 10.9247 22.4925 10 20 10C16.3023 10 13.0698 12.0139 11.3442 15.0046L14.735 16.9591C15.7891 15.1414 17.7518 13.913 20 13.913Z" fill="#FF4B26"/>
<path d="M23.8645 15.3005C24.124 15.5143 24.5012 15.4988 24.7389 15.2611L26.5854 13.4146C26.855 13.145 26.8358 12.7035 26.5477 12.4536C24.7854 10.9247 22.4925 10 20 10V13.913C21.466 13.913 22.8127 14.434 23.8645 15.3005Z" fill="#D93F21"/>
<defs>
<linearGradient id="paint0_linear_11025_5406" x1="20" y1="0" x2="20" y2="40" gradientUnits="userSpaceOnUse">
<stop stop-color="#FF4B26"/>
<stop offset="0.305" stop-color="#FFD500"/>
<stop offset="0.61" stop-color="#12B347"/>
<stop offset="1" stop-color="#167EE6"/>
</linearGradient>
</defs>
</svg>
