<svg width="34" height="48" viewBox="0 0 34 48" fill="none" xmlns="http://www.w3.org/2000/svg">
<g id="Group">
<path id="Vector" d="M22.4665 1.7868L4.09744 47.8945L1.25758 46.2146C0.96759 46.0546 0.787599 45.6946 0.787599 45.1947L0.687604 12.3363C0.677605 11.3263 1.38757 10.0864 2.26753 9.58642L18.4867 0.216876C18.9267 -0.0331116 19.3267 -0.0631103 19.6167 0.106881L22.4665 1.7868Z" fill="#1D2943"/>
<path id="Vector_2" d="M21.3296 1.89471C22.2096 1.38573 22.9265 1.79471 22.9295 2.80566L23.0345 35.667C23.0375 36.679 22.3255 37.9119 21.4446 38.4199L5.23138 47.7815C4.35143 48.2894 3.63446 47.8815 3.63146 46.8695L3.52647 14.0081C3.52347 12.9962 4.23543 11.7642 5.11639 11.2552L21.3296 1.89471Z" fill="#1D2943"/>
<path id="Vector_3" d="M21.3306 2.1268C22.0976 1.68382 22.7245 2.0408 22.7265 2.92276L22.8315 35.7841C22.8345 36.6661 22.2116 37.744 21.4446 38.187L5.23039 47.5486C4.46242 47.9915 3.83645 47.6346 3.83445 46.7526L3.72846 13.8912C3.72646 13.0093 4.34843 11.9313 5.11639 11.4883L21.3306 2.1268Z" fill="#4C5C75"/>
<path id="Vector_4" d="M16.2718 6.14098C16.2694 6.26253 16.233 6.38097 16.1668 6.48296C16.1112 6.58729 16.0296 6.67547 15.9299 6.73895L10.6401 9.7908C10.4511 9.9048 10.2901 9.8098 10.2901 9.59181C10.2901 9.48782 10.3281 9.36382 10.3941 9.25983C10.4507 9.15294 10.5363 9.0642 10.6411 9.00384L15.9209 5.95199C16.1108 5.838 16.2708 5.92299 16.2708 6.14198L16.2718 6.14098Z" fill="white"/>
<path id="Vector_5" d="M18.6607 1.7475C18.2007 1.48651 17.4428 1.48651 16.9828 1.7475C16.5728 1.98349 16.5228 2.34347 16.8338 2.60446C16.8791 2.56121 16.9295 2.5236 16.9838 2.49246C17.4438 2.23247 18.2007 2.23247 18.6607 2.49246L18.8097 2.60446C19.1077 2.34447 19.0587 1.98349 18.6607 1.7475Z" fill="white"/>
<path id="Vector_6" d="M16.9828 2.49284C16.9288 2.52405 16.8788 2.56165 16.8338 2.60484C16.8791 2.64808 16.9295 2.68569 16.9838 2.71683C17.4548 2.98982 18.2007 2.98982 18.6607 2.71683C18.7107 2.69183 18.7607 2.65483 18.8097 2.61684V2.60484L18.6597 2.49284C18.2007 2.23285 17.4428 2.23285 16.9828 2.49284Z" fill="#111D33"/>
<path id="Vector_7" d="M3.14048 17.588L3.13148 20.9128C3.12948 21.1228 3.05648 21.2698 2.93649 21.3398L2.36351 21.6718C2.48251 21.6038 1.83754 21.5108 1.83754 21.2998L1.71455 19.0699C1.71455 18.652 1.90054 18.264 1.53455 18.053C1.35156 17.949 1.56155 16.6711 1.44156 16.7371L2.01553 16.4031C2.13553 16.3361 2.30052 16.3451 2.48351 16.4501C2.84749 16.6601 3.14248 17.172 3.14048 17.588Z" fill="white"/>
<path id="Vector_8" d="M1.90953 16.785C1.72653 16.679 1.56254 16.67 1.44255 16.737C1.32255 16.806 1.24856 16.953 1.24856 17.161L1.23856 20.4848C1.23756 20.9048 1.53154 21.4148 1.89553 21.6247C2.07752 21.7297 2.24251 21.7397 2.3635 21.6727C2.4835 21.6047 2.55749 21.4577 2.55749 21.2468L2.56749 17.9229C2.56749 17.5049 2.27451 16.995 1.90953 16.785Z" fill="#E9E7FC"/>
<path id="Vector_9" d="M3.12248 24.2317L3.11448 27.5555C3.11248 27.7665 3.03948 27.9115 2.91849 27.9815L2.34652 28.3155C2.46451 28.2455 1.99653 28.0675 1.99653 27.8565L1.98153 24.9467C1.98153 24.5277 2.05853 24.6847 1.69255 24.4737C1.51156 24.3667 1.54655 23.3128 1.42456 23.3788L1.99853 23.0458C2.11853 22.9778 2.28252 22.9888 2.46551 23.0928C2.83049 23.3038 3.12548 23.8127 3.12248 24.2317Z" fill="white"/>
<path id="Vector_10" d="M1.89155 23.4263C1.70956 23.3213 1.54556 23.3113 1.42457 23.3783C1.30458 23.4483 1.23158 23.5953 1.23058 23.8033L1.22058 27.1271C1.22058 27.5471 1.51457 28.0561 1.87855 28.267C2.06054 28.372 2.22553 28.382 2.34653 28.315C2.46652 28.245 2.53952 28.1 2.54052 27.8891L2.55052 24.5652C2.55052 24.1462 2.25753 23.6373 1.89155 23.4263Z" fill="#E9E7FC"/>
<path id="Vector_11" d="M4.69541 47.0641C4.48542 47.0641 4.45442 46.7962 4.45442 46.6362L4.42842 38.3606L4.37343 22.3954L4.34843 13.7738C4.34643 13.1618 4.7934 12.3868 5.32438 12.0819L9.11419 9.89397L9.13319 10.113C9.17319 10.5369 9.47217 10.8309 9.85816 10.8309C10.0256 10.8284 10.1891 10.7793 10.3301 10.6889L16.5498 7.09911C16.9548 6.86712 17.2798 6.34914 17.3218 5.86717L17.3728 5.1252L21.5386 2.71932C21.6367 2.65627 21.7492 2.61911 21.8656 2.61133C22.0756 2.61133 22.1086 2.88131 22.1096 3.04131L22.1256 8.34405L22.1416 14.3988L22.2146 35.9027C22.2165 36.5117 21.7686 37.2856 21.2366 37.5946L5.02439 46.9562C4.92562 47.0194 4.81243 47.0565 4.69541 47.0641Z" fill="white"/>
<path id="Vector_12" d="M9.01891 27.3376C9.25333 27.5756 9.37542 27.9205 9.37737 28.3801C9.38323 30.6155 6.88378 32.575 6.19811 31.0342C5.79667 30.1395 5.76151 28.9222 5.96663 28.1488C6.38174 26.5138 8.13497 26.4681 9.01891 27.3376ZM16.7497 24.2298C18.586 24.9681 19.2209 28.348 18.9093 30.2696C18.6094 32.0834 17.5536 33.291 15.6734 33.4261C13.4757 33.5621 13.1085 35.0145 11.535 36.2084C9.99174 37.383 9.35686 36.5514 9.3256 34.6346C9.34123 33.4979 9.73485 31.1556 10.4899 29.2855C11.5887 26.5585 14.2561 23.2194 16.7497 24.2298ZM17.7138 17.0319C18.0595 17.8713 18.3233 19.7288 17.7548 20.9607C17.4168 21.6864 16.9275 22.2236 16.4391 22.5034C15.3481 23.13 14.5189 22.3451 14.8314 20.8519C15.0698 19.7016 15.4761 18.5513 16.1149 17.4273C16.5251 16.7103 17.3514 16.1809 17.7138 17.0319ZM12.162 20.0951C12.68 20.5861 13.0328 21.2243 13.172 21.9225C13.3165 22.6093 13.1358 23.3914 12.625 24.221C11.5799 25.9115 9.81202 26.0562 9.8882 24.0549C9.90481 23.2039 9.99369 22.3247 10.2359 21.3813C10.5543 20.1281 11.2107 19.2013 12.163 20.0951H12.162ZM22.1462 19.5403C22.1852 20.0115 22.1179 21.0578 21.816 22.0565C21.5562 22.9134 21.0659 23.6867 20.2777 24.1394C19.6584 24.495 19.1828 24.4183 18.8771 23.9714C18.5196 23.4438 18.5215 22.6929 18.9259 21.7583C19.3559 20.7438 19.9802 19.8222 20.7641 19.0449C21.5074 18.3162 22.069 18.3697 22.1462 19.5403Z" fill="#FF7F00"/>
<path id="Vector_13" d="M33.326 18.5358C33.326 20.2757 32.1061 22.4056 30.5861 23.2755L25.3164 26.3254C25.1911 27.5164 24.7896 28.6618 24.1438 29.6703C23.4981 30.6789 22.6259 31.5229 21.5966 32.1351C21.4566 32.2151 21.3766 32.2551 21.3666 32.2551L18.9267 30.8352C19.2667 30.4352 19.4867 30.0152 19.6367 29.6052L19.2567 29.8252C18.4567 30.2882 17.7368 30.3002 17.2308 29.9592C17.2538 29.9752 17.2728 30.0012 17.2968 30.0152L14.8569 28.5953C14.3569 28.3053 14.0569 27.6953 14.0469 26.8354L14.0269 16.5459C14.0169 14.806 15.2469 12.6761 16.7668 11.8061L28.0963 5.25642C28.8562 4.81644 29.5462 4.77644 30.0562 5.06643L32.496 6.48636C32.456 6.46636 32.426 6.44636 32.386 6.43636C32.936 6.69635 33.286 7.32632 33.296 8.24627L33.326 18.5358Z" fill="#497BFE"/>
<path id="Vector_14" d="M21.3716 32.2572L18.9267 30.8373C20.4406 29.0414 19.7367 26.8455 19.7007 26.7295L22.1445 28.1504C23.5365 26.2415 22.8845 30.4623 21.3716 32.2572Z" fill="#5094FF"/>
<path id="Vector_15" d="M32.4961 6.48705C31.9951 6.19906 31.3031 6.24006 30.5402 6.67904L24.1785 18.1215C22.6585 18.9964 22.1656 21.7513 22.1686 23.4962L16.4948 28.252C16.4978 29.1169 16.8028 29.7259 17.2958 30.0119L14.8519 28.592C14.3589 28.307 14.054 27.698 14.052 26.832L14.022 16.5426C14.016 14.8026 15.2439 12.6797 16.7628 11.8018L28.0963 5.26011C28.8592 4.81713 29.5512 4.77913 30.0512 5.06812L32.4961 6.48705Z" fill="#57B3FE"/>
<path id="Vector_16" d="M30.5391 6.68038C32.0551 5.80543 33.289 6.50639 33.294 8.24831L33.324 18.5378C33.329 20.2797 32.1031 22.4016 30.5861 23.2776L25.3134 26.3214C25.1907 27.5134 24.7907 28.66 24.1455 29.6697C23.5003 30.6794 22.6277 31.5241 21.5976 32.1361C21.4546 32.2181 21.3756 32.2561 21.3716 32.2571C22.8855 30.4622 22.1816 28.2663 22.1446 28.1503L19.2527 29.8202C17.7348 30.6972 16.5008 29.9962 16.4958 28.2533L16.4658 17.9638C16.4608 16.2219 17.6878 14.101 19.2057 13.2241L30.5391 6.68038Z" fill="#497BFE"/>
<path id="Vector_17" d="M24.9264 21.8371C25.4614 21.5281 25.9344 21.7271 25.9364 22.3531C25.9384 22.957 25.5034 23.72 24.9454 24.042C24.4064 24.352 23.9355 24.152 23.9325 23.527C23.9315 22.914 24.3744 22.1561 24.9264 21.8371ZM24.9974 13.3355C25.7734 12.8875 26.4003 12.7675 26.8873 12.9705C27.3733 13.1735 27.6183 13.7085 27.6213 14.5764C27.6233 15.1754 27.4813 15.7564 27.1963 16.3194C27.0323 16.6543 26.9073 16.8963 26.8213 17.0453C26.7078 17.2395 26.5928 17.4329 26.4763 17.6253C26.3343 17.8633 26.2123 18.0683 26.1134 18.2413C26.0134 18.4123 25.9334 18.5573 25.8734 18.6702C25.7184 18.9802 25.6414 19.3352 25.6424 19.7342L25.6444 20.4072L24.1744 21.2571L24.1715 20.3442C24.1705 19.9442 24.2104 19.6242 24.2924 19.3822C24.3744 19.1402 24.5524 18.7792 24.8294 18.2993L25.7764 16.6593C25.9673 16.324 26.0692 15.9453 26.0724 15.5594C26.0724 15.1924 25.9674 14.9454 25.7584 14.8214C25.5494 14.6974 25.2794 14.7284 24.9504 14.9184C24.6204 15.1114 24.3464 15.3864 24.1245 15.7494C23.9045 16.1104 23.7775 16.4964 23.7445 16.9043L22.1685 17.8143C22.2507 16.8838 22.5597 15.9877 23.0685 15.2044C23.5825 14.4045 24.2244 13.7815 24.9974 13.3355Z" fill="white"/>
</g>
</svg>
