<svg width="32" height="32" viewBox="0 0 32 32" fill="none" xmlns="http://www.w3.org/2000/svg">
<g clip-path="url(#clip0_141_964)">
<path d="M6.6665 17.3333C6.6665 16.626 6.94746 15.9478 7.44755 15.4477C7.94765 14.9476 8.62593 14.6666 9.33317 14.6666H22.6665C23.3737 14.6666 24.052 14.9476 24.5521 15.4477C25.0522 15.9478 25.3332 16.626 25.3332 17.3333V25.3333C25.3332 26.0405 25.0522 26.7188 24.5521 27.2189C24.052 27.719 23.3737 28 22.6665 28H9.33317C8.62593 28 7.94765 27.719 7.44755 27.2189C6.94746 26.7188 6.6665 26.0405 6.6665 25.3333V17.3333Z" stroke="#949494" stroke-width="1.5" stroke-linecap="round" stroke-linejoin="round"/>
<path d="M14.6665 21.3333C14.6665 21.687 14.807 22.0261 15.057 22.2761C15.3071 22.5262 15.6462 22.6667 15.9998 22.6667C16.3535 22.6667 16.6926 22.5262 16.9426 22.2761C17.1927 22.0261 17.3332 21.687 17.3332 21.3333C17.3332 20.9797 17.1927 20.6406 16.9426 20.3905C16.6926 20.1405 16.3535 20 15.9998 20C15.6462 20 15.3071 20.1405 15.057 20.3905C14.807 20.6406 14.6665 20.9797 14.6665 21.3333Z" stroke="#949494" stroke-width="1.5" stroke-linecap="round" stroke-linejoin="round"/>
<path d="M10.6665 14.6667V9.33333C10.6665 7.91885 11.2284 6.56229 12.2286 5.5621C13.2288 4.5619 14.5853 4 15.9998 4C17.4143 4 18.7709 4.5619 19.7711 5.5621C20.7713 6.56229 21.3332 7.91885 21.3332 9.33333V14.6667" stroke="#949494" stroke-width="1.5" stroke-linecap="round" stroke-linejoin="round"/>
</g>
<defs>
<clipPath id="clip0_141_964">
<rect width="32" height="32" fill="white"/>
</clipPath>
</defs>
</svg>
