<svg width="16" height="17" viewBox="0 0 16 17" fill="none" xmlns="http://www.w3.org/2000/svg">
<g clip-path="url(#clip0_1_2493)">
<path d="M12.6667 1.16675H3.33333C2.4496 1.16781 1.60237 1.51934 0.97748 2.14423C0.352588 2.76912 0.00105857 3.61635 0 4.50008L0 12.5001C0.00105857 13.3838 0.352588 14.231 0.97748 14.8559C1.60237 15.4808 2.4496 15.8324 3.33333 15.8334H12.6667C13.5504 15.8324 14.3976 15.4808 15.0225 14.8559C15.6474 14.231 15.9989 13.3838 16 12.5001V4.50008C15.9989 3.61635 15.6474 2.76912 15.0225 2.14423C14.3976 1.51934 13.5504 1.16781 12.6667 1.16675ZM3.33333 2.50008H12.6667C13.0659 2.50087 13.4557 2.62109 13.786 2.84528C14.1163 3.06948 14.3719 3.38738 14.52 3.75808L9.41467 8.86408C9.03895 9.23829 8.53028 9.44839 8 9.44839C7.46972 9.44839 6.96105 9.23829 6.58533 8.86408L1.48 3.75808C1.6281 3.38738 1.88374 3.06948 2.21403 2.84528C2.54432 2.62109 2.93414 2.50087 3.33333 2.50008ZM12.6667 14.5001H3.33333C2.8029 14.5001 2.29419 14.2894 1.91912 13.9143C1.54405 13.5392 1.33333 13.0305 1.33333 12.5001V5.50008L5.64267 9.80675C6.26842 10.4309 7.11617 10.7814 8 10.7814C8.88383 10.7814 9.73158 10.4309 10.3573 9.80675L14.6667 5.50008V12.5001C14.6667 13.0305 14.456 13.5392 14.0809 13.9143C13.7058 14.2894 13.1971 14.5001 12.6667 14.5001Z" fill="#060607"/>
</g>
<defs>
<clipPath id="clip0_1_2493">
<rect width="16" height="16" fill="white" transform="translate(0 0.5)"/>
</clipPath>
</defs>
</svg>
