<svg width="34" height="48" viewBox="0 0 34 48" fill="none" xmlns="http://www.w3.org/2000/svg">
<g id="Group">
<path id="Vector" d="M6.90701 47.8878C6.88483 47.8781 6.86453 47.8645 6.84701 47.8478C6.81221 47.823 6.78179 47.7926 6.75702 47.7578C6.79702 47.8078 6.84701 47.8478 6.90701 47.8878Z" fill="#1D2943"/>
<g id="Group_2">
<path id="Vector_2" d="M25.7258 3.12083C25.7158 2.65086 25.5458 2.33089 25.2558 2.2009C25.2758 2.2009 25.2958 2.2109 25.3158 2.2209L21.746 0.101045C21.4861 -0.0589432 21.1361 -0.0289452 20.7461 0.191039L4.26727 9.71036C3.48733 10.1603 2.86737 11.2403 2.86737 12.1302L2.94736 44.8779C2.95736 45.3178 3.10735 45.6278 3.36734 45.7778L6.84709 47.8477C6.81228 47.8229 6.78186 47.7925 6.75709 47.7577C6.79709 47.8077 6.84709 47.8477 6.90708 47.8877C7.15707 48.0576 7.51704 48.0377 7.92701 47.8077L24.4058 38.2883C25.1858 37.8384 25.8157 36.7584 25.8057 35.8685L25.7258 3.12083ZM24.3159 2.32089C24.6158 2.1409 24.8858 2.0909 25.1158 2.1509C24.8858 2.0909 24.6058 2.1509 24.3159 2.32089Z" fill="#4C5C75"/>
<path id="Vector_3" d="M6.90699 47.8878C6.88482 47.8781 6.86451 47.8645 6.847 47.8478C6.81219 47.823 6.78177 47.7926 6.757 47.7578C6.797 47.8078 6.847 47.8478 6.90699 47.8878Z" fill="#4C5C75"/>
</g>
<path id="Vector_4" d="M6.90701 47.8878C6.88483 47.8781 6.86453 47.8645 6.84701 47.8478C6.81221 47.823 6.78179 47.7926 6.75702 47.7578C6.79702 47.8078 6.84701 47.8478 6.90701 47.8878Z" fill="#1D2943"/>
<path id="Vector_5" d="M25.7258 3.12083C25.7158 2.65086 25.5458 2.33089 25.2558 2.2009C25.2758 2.2009 25.2958 2.2109 25.3158 2.2209L21.746 0.101045C21.4861 -0.0589432 21.1361 -0.0289452 20.7461 0.191039L4.26727 9.71036C3.48733 10.1603 2.86737 11.2403 2.86737 12.1302L2.94736 44.8779C2.95736 45.3178 3.10735 45.6278 3.36734 45.7778L6.84709 47.8477C6.81228 47.8229 6.78186 47.7925 6.75709 47.7577C6.79709 47.8077 6.84709 47.8477 6.90708 47.8877C7.15707 48.0576 7.51704 48.0377 7.92701 47.8077L24.4058 38.2883C25.1858 37.8384 25.8157 36.7584 25.8057 35.8685L25.7258 3.12083ZM24.3159 2.32089C24.6158 2.1409 24.8858 2.0909 25.1158 2.1509C24.8858 2.0909 24.6058 2.1509 24.3159 2.32089Z" fill="#1D2943"/>
<path id="Vector_6" d="M6.90701 47.8878C6.88483 47.8781 6.86453 47.8645 6.84701 47.8478C6.81221 47.823 6.78179 47.7926 6.75702 47.7578C6.79702 47.8078 6.84701 47.8478 6.90701 47.8878Z" fill="#4C5C75"/>
<path id="Vector_7" d="M25.3158 2.21776C25.0538 2.07377 24.7068 2.09077 24.3089 2.31875L7.83303 11.8311C7.05408 12.279 6.42813 13.363 6.43613 14.2599L6.52112 47.0036C6.52112 47.4436 6.67311 47.7565 6.92709 47.9005L3.36335 45.7807C3.10936 45.6277 2.95737 45.3147 2.94837 44.8747L2.86438 12.1311C2.86438 11.2421 3.49034 10.1592 4.26928 9.71123L20.7451 0.190905C21.1351 -0.0290793 21.4901 -0.0550776 21.744 0.0979115L25.3158 2.21776Z" fill="#1D2943"/>
<path id="Vector_8" d="M24.3118 2.32103C25.0908 1.87106 25.7187 2.23003 25.7217 3.12397L25.8087 35.8647C25.8117 36.7586 25.1868 37.8405 24.4088 38.2895L7.92999 47.8038C7.15205 48.2538 6.52309 47.8948 6.52009 47.0009L6.4331 14.2602C6.4301 13.3652 7.05506 12.2833 7.833 11.8344L24.3118 2.32103Z" fill="#4C5C75"/>
<path id="Vector_9" d="M24.8438 35.8709C24.8438 36.4249 24.4199 37.1809 23.9259 37.4628L8.54698 46.3422C8.43877 46.404 8.31628 46.4364 8.19167 46.4361C8.06707 46.4359 7.9447 46.4031 7.83672 46.3409C7.72873 46.2787 7.63891 46.1894 7.57616 46.0817C7.51342 45.974 7.47994 45.8518 7.47906 45.7272L7.39906 14.0605L24.7718 4.0332L24.8438 35.8709Z" fill="white"/>
<path id="Vector_10" d="M5.52721 16.8399L5.51721 20.7496C5.51721 20.9696 5.43721 21.1396 5.29722 21.2096L4.77726 21.5196C4.64727 21.5996 4.45728 21.5896 4.2573 21.4696C3.85732 21.2396 3.52735 20.6697 3.52735 20.2097L3.53735 16.31C3.54735 16.07 3.63734 15.9 3.78733 15.83C3.76733 15.83 3.75733 15.83 3.74733 15.84L4.2873 15.53C4.41729 15.46 4.59727 15.47 4.80726 15.59C5.20723 15.82 5.52721 16.38 5.52721 16.8399ZM5.50721 24.5094V26.8492C5.49721 27.0792 5.42721 27.2392 5.28722 27.3192L4.75726 27.6292C4.62727 27.7092 4.44728 27.6992 4.2473 27.5792C3.83733 27.3392 3.51735 26.7792 3.51735 26.3193V23.9794C3.51735 23.7494 3.59734 23.5794 3.73733 23.5095C3.74733 23.4995 3.76733 23.4995 3.77733 23.4895C3.77733 23.4795 3.78733 23.4795 3.79733 23.4795L4.2673 23.1995C4.39729 23.1195 4.57727 23.1295 4.78726 23.2495C5.17723 23.4795 5.51721 24.0494 5.50721 24.5094Z" fill="#9EA9C9"/>
<g id="Group_3">
<path id="Vector_11" d="M5.50718 24.5094V26.8492C5.49718 27.0792 5.42718 27.2392 5.28719 27.3192L4.75723 27.6292C4.62724 27.7092 4.44725 27.6992 4.24727 27.5792C3.8373 27.3392 3.51732 26.7792 3.51732 26.3193V23.9794C3.51732 23.7494 3.59731 23.5794 3.7373 23.5094C3.7473 23.4995 3.7673 23.4995 3.7773 23.4895C3.7773 23.4795 3.7873 23.4795 3.7973 23.4795L4.26727 23.1995C4.39726 23.1195 4.57724 23.1295 4.78723 23.2495C5.1772 23.4795 5.51718 24.0494 5.50718 24.5094ZM5.52718 16.8399L5.51718 20.7496C5.51718 20.9696 5.43718 21.1396 5.29719 21.2096L4.77723 21.5196C4.64724 21.5996 4.45725 21.5896 4.25727 21.4696C3.85729 21.2396 3.52732 20.6697 3.52732 20.2097L3.53732 16.31C3.54732 16.07 3.63731 15.9 3.7873 15.83C3.7673 15.83 3.7573 15.83 3.7473 15.84L4.28726 15.53C4.41726 15.46 4.59724 15.47 4.80723 15.59C5.2072 15.82 5.52718 16.38 5.52718 16.8399Z" fill="#9EA9C9"/>
</g>
<path id="Vector_12" d="M5.5271 16.8425L5.5201 20.7433C5.5201 20.9692 5.43711 21.1352 5.30212 21.2112L4.77516 21.5192C4.90315 21.4442 4.98514 21.2792 4.98514 21.0452L5.00114 17.1515C5.00114 16.6916 4.67716 16.1276 4.27819 15.8946C4.06721 15.7746 3.88622 15.7656 3.75023 15.8416L4.28519 15.5326C4.41318 15.4576 4.60117 15.4726 4.80515 15.5856C5.20413 15.8186 5.5281 16.3836 5.5281 16.8425H5.5271Z" fill="#9EA9C9"/>
<path id="Vector_13" d="M4.27421 15.8953C4.67419 16.1253 4.99916 16.6902 4.99816 17.1492L4.98716 21.0489C4.98516 21.5139 4.65719 21.7009 4.25822 21.4699C3.85424 21.2369 3.52827 20.6729 3.53027 20.208L3.54027 16.3082C3.54227 15.8493 3.87024 15.6623 4.27421 15.8953Z" fill="#F3F1FC"/>
<path id="Vector_14" d="M5.50524 24.5076V26.8494C5.49824 27.0834 5.42225 27.2414 5.28726 27.3164L4.76029 27.6254C4.88828 27.5504 4.97028 27.3844 4.97028 27.1584L4.97828 24.8166C4.97828 24.3566 4.6543 23.7926 4.25533 23.5586C4.05234 23.4387 3.86336 23.4307 3.73537 23.5056L4.26233 23.1977C4.39832 23.1217 4.57931 23.1297 4.78229 23.2497C5.18226 23.4836 5.51224 24.0486 5.50524 24.5076Z" fill="#9EA9C9"/>
<path id="Vector_15" d="M4.25435 23.5582C4.65332 23.7882 4.97929 24.3532 4.97729 24.8171L4.97129 27.16C4.96929 27.6179 4.64132 27.8049 4.24235 27.575C3.83837 27.341 3.5124 26.777 3.5144 26.318L3.5214 23.9762C3.5214 23.5122 3.85037 23.3253 4.25435 23.5582Z" fill="#F3F1FC"/>
<path id="Vector_16" d="M4.2693 9.71173L20.7451 0.191406L4.2693 9.71173Z" fill="#1D2943"/>
<path id="Vector_17" d="M31.3854 7.86086V9.61074C31.3854 10.7107 30.6154 12.0506 29.6555 12.6005C29.1756 12.8805 28.7356 12.9005 28.4156 12.7205L27.9556 12.4605C27.8948 12.4315 27.843 12.3866 27.8056 12.3305C27.5757 13.2405 26.9357 14.1604 26.1858 14.6004C25.6958 14.8804 25.2458 14.9004 24.9359 14.7204L24.8459 14.6604L24.4859 14.4504C24.4259 14.4204 24.3759 14.3704 24.3259 14.3204C24.1059 15.2403 23.466 16.1703 22.706 16.6002C22.226 16.8802 21.7861 16.9002 21.4761 16.7202C21.4415 16.7025 21.4081 16.6825 21.3761 16.6602L21.0161 16.4503C20.9541 16.4189 20.8995 16.3746 20.8561 16.3203C20.6362 17.2402 19.9862 18.1701 19.2363 18.6001C18.7463 18.8801 18.2963 18.9001 17.9863 18.7201L17.8963 18.6601L17.5364 18.4501C17.4765 18.4155 17.4225 18.3716 17.3764 18.3201C17.1564 19.2301 16.5164 20.16 15.7565 20.6C15.2565 20.8899 14.8066 20.8999 14.4866 20.69L14.0666 20.45C13.7466 20.27 13.5567 19.88 13.5567 19.34L13.5467 18.1201L7.39709 14.5604V14.0304C7.49709 13.9714 25.9428 3.35318 24.7659 4.03113L30.9254 7.60088L31.3854 7.86086Z" fill="#F45170"/>
<path id="Vector_18" d="M21.2961 6.03027L21.2981 6.56024L27.4527 10.125L27.4517 9.59502L21.2961 6.03027Z" fill="#AFB2B9"/>
<path id="Vector_19" d="M30.9254 7.601V8.13096L27.4557 10.1308V9.60086L21.2961 6.03111L24.7659 4.03125L30.9254 7.601Z" fill="#F45170"/>
<path id="Vector_20" d="M27.4517 9.59551L27.4527 10.1255L30.9254 8.12762L30.9244 7.59766L27.4517 9.59551Z" fill="#7A7C81"/>
<path id="Vector_21" d="M21.2961 6.03106L27.4517 9.59581L30.9244 7.59795L24.7698 4.0332L21.2961 6.03106Z" fill="#F45170"/>
<path id="Vector_22" d="M17.8202 8.03027L17.8212 8.56124L23.9758 12.125L23.9748 11.595L17.8202 8.03027Z" fill="#3B475A"/>
<path id="Vector_23" d="M23.9748 11.5956L23.9758 12.1255L27.4525 10.1257L27.4515 9.5957L23.9748 11.5956Z" fill="#29313F"/>
<path id="Vector_24" d="M17.8202 8.03013L23.9748 11.5949L27.4515 9.59502L21.2969 6.03027L17.8202 8.03013Z" fill="#FFD06C"/>
<path id="Vector_25" d="M14.3465 10.0293L14.3485 10.5593L20.5031 14.123L20.5021 13.593L14.3465 10.0293Z" fill="#AFB2B9"/>
<path id="Vector_26" d="M20.5021 13.5936L20.5031 14.1235L23.9758 12.1257L23.9748 11.5957L20.5021 13.5936Z" fill="#7A7C81"/>
<path id="Vector_27" d="M14.3465 10.0291L20.5021 13.5929L23.9748 11.595L17.8203 8.03125L14.3465 10.0291Z" fill="#F45170"/>
<path id="Vector_28" d="M10.8748 12.0273L10.8758 12.5573L17.0303 16.1211L17.0293 15.5911L10.8748 12.0273Z" fill="#3B475A"/>
<path id="Vector_29" d="M17.0294 15.5906L17.0304 16.1206L20.5031 14.1227L20.5021 13.5928L17.0294 15.5906Z" fill="#29313F"/>
<path id="Vector_30" d="M10.8748 12.0272L17.0293 15.5909L20.5021 13.593L14.3475 10.0293L10.8748 12.0272Z" fill="#FFD06C"/>
<path id="Vector_31" d="M17.0264 15.59V16.12L13.5567 18.1198L7.39709 14.5601V14.0301L10.8768 12.0303L17.0264 15.59Z" fill="#CC104A"/>
<path id="Vector_32" d="M7.39709 14.0273L7.39909 14.5573L13.5537 18.1221L13.5527 17.5921L7.39709 14.0273ZM13.5527 17.5921L13.5537 18.1221L17.0304 16.1212L17.0294 15.5912L13.5527 17.5921Z" fill="#DF3260"/>
<path id="Vector_33" d="M7.39709 14.0272L13.5527 17.5909L17.0294 15.5911L10.8748 12.0273L7.39709 14.0272Z" fill="#F45170"/>
<path id="Vector_34" d="M28.4176 12.7216L27.9576 12.4556C27.6447 12.2746 27.4517 11.8907 27.4497 11.3457L27.9096 11.6117C27.9116 12.1566 28.1056 12.5416 28.4176 12.7216Z" fill="#DF3260"/>
<path id="Vector_35" d="M27.9095 11.6105L27.4496 11.3445L27.4445 9.59766L27.9045 9.86464L27.9095 11.6105Z" fill="#8FABFE"/>
<path id="Vector_36" d="M27.9055 9.8645L27.4455 9.59751L30.9213 7.59766L31.3813 7.86364L27.9055 9.8645Z" fill="#E93565"/>
<path id="Vector_37" d="M31.3813 7.86328L31.3863 9.61016C31.3903 10.7081 30.6123 12.05 29.6544 12.6009C28.6945 13.1529 27.9125 12.7089 27.9095 11.611L27.9045 9.86414L31.3813 7.86328Z" fill="#CC104A"/>
<path id="Vector_38" d="M24.9447 14.7197L24.4848 14.4527C24.1718 14.2717 23.9788 13.8877 23.9768 13.3428L24.4368 13.6088C24.4388 14.1537 24.6327 14.5397 24.9447 14.7197Z" fill="#FEBC1F"/>
<path id="Vector_39" d="M24.4368 13.6096L23.9768 13.3426L23.9718 11.5957L24.4318 11.8627L24.4368 13.6096Z" fill="#FFD06C"/>
<path id="Vector_40" d="M24.4318 11.8625L23.9718 11.5955L27.4446 9.59766L27.9046 9.86464L24.4318 11.8625Z" fill="#FEBC1F"/>
<path id="Vector_41" d="M27.9056 9.86426L27.9095 11.6111C27.9125 12.7091 27.1396 14.048 26.1817 14.5989C25.2217 15.1509 24.4398 14.7069 24.4368 13.609L24.4318 11.8621L27.9056 9.86426Z" fill="#F9A83D"/>
<path id="Vector_42" d="M21.472 16.7197L21.012 16.4528C20.699 16.2728 20.5061 15.8868 20.5041 15.3398L20.964 15.6068C20.966 16.1528 21.16 16.5388 21.472 16.7197Z" fill="#DF3260"/>
<path id="Vector_43" d="M20.9641 15.6066L20.5041 15.3396L20.4991 13.5928L20.9591 13.8598L20.9641 15.6066Z" fill="#8FABFE"/>
<path id="Vector_44" d="M20.9591 13.8605L20.4991 13.5936L23.9719 11.5957L24.4319 11.8627L20.9591 13.8605Z" fill="#E93565"/>
<path id="Vector_45" d="M24.4318 11.8623L24.4368 13.6092C24.4398 14.7071 23.6629 16.048 22.704 16.599C21.745 17.1509 20.9671 16.705 20.9641 15.607L20.9591 13.8602L24.4318 11.8623Z" fill="#CC104A"/>
<path id="Vector_46" d="M17.9963 18.7195L17.5324 18.4525C17.2254 18.2695 17.0294 17.8855 17.0294 17.3396L17.0224 15.5957L17.4804 15.8627L17.4864 17.6066C17.4864 18.1525 17.6824 18.5375 17.9963 18.7195Z" fill="#FEBC1F"/>
<path id="Vector_47" d="M14.0095 17.8576L13.5495 17.5906L17.0223 15.5928L17.4822 15.8598L14.0095 17.8576Z" fill="#E93565"/>
<path id="Vector_48" d="M20.9592 13.8604L20.9642 15.6072C20.9672 16.7052 20.1902 18.0461 19.2313 18.597C18.2724 19.149 17.4914 18.705 17.4874 17.6071L17.4824 15.8602L20.9592 13.8604Z" fill="#F9A83D"/>
<path id="Vector_49" d="M17.4824 15.8596L17.0224 15.5926L20.4992 13.5928L20.9591 13.8598L17.4824 15.8596Z" fill="#FEBC1F"/>
<path id="Vector_50" d="M14.5215 20.7165L14.0645 20.4495C13.7515 20.2676 13.5545 19.8836 13.5545 19.3376L13.5485 17.5938L14.0125 17.8597V19.6036C14.0195 20.1506 14.2075 20.5335 14.5215 20.7165Z" fill="#DF3260"/>
<path id="Vector_51" d="M17.4822 15.8604L17.4872 17.6072C17.4902 18.7052 16.7173 20.0441 15.7584 20.596C14.7994 21.147 14.0185 20.703 14.0145 19.6061L14.0095 17.8582L17.4822 15.8604Z" fill="#CC104A"/>
<path id="Vector_52" d="M7.41406 21.1292L7.39906 14.5566L13.5536 18.1214V19.5093L7.41406 21.1292Z" fill="#E93565"/>
<path id="Vector_53" d="M14.6766 36.8043C14.8056 36.9043 14.8836 37.0873 14.8846 37.3362C14.8866 37.8892 14.5006 38.5601 14.0167 38.8401C13.5357 39.1171 13.1447 38.8951 13.1427 38.3422C13.1427 38.0922 13.2197 37.8202 13.3487 37.5702L14.6766 36.8043ZM20.6532 33.3535C20.7832 33.4535 20.8612 33.6365 20.8622 33.8855C20.8632 34.4374 20.4782 35.1094 19.9942 35.3884C19.5133 35.6664 19.1213 35.4434 19.1203 34.8904C19.1203 34.6414 19.1973 34.3694 19.3263 34.1195L20.6532 33.3535Z" fill="#4C5C75"/>
<path id="Vector_54" d="M22.0009 23.4076C22.2659 23.2546 22.4739 23.3956 22.4479 23.7166L21.9439 29.6841C21.9199 29.9591 21.7299 30.2661 21.5 30.3991L12.7586 35.4457C12.7586 35.4287 12.7576 35.4127 12.7546 35.3957L11.8996 29.2402L22.0009 23.4076ZM15.0444 32.312L15.0364 29.2402C15.0354 29.0462 14.8964 28.9672 14.7284 29.0642C14.6383 29.1217 14.5632 29.1999 14.5093 29.2922C14.4554 29.3845 14.4242 29.4884 14.4185 29.5952L14.4285 32.6679C14.4285 32.8679 14.5645 32.9449 14.7384 32.8449C14.8281 32.7868 14.9026 32.7081 14.9558 32.6154C15.009 32.5227 15.0394 32.4187 15.0444 32.312ZM17.3393 30.9871L17.3303 27.9153C17.3303 27.7213 17.1913 27.6423 17.0233 27.7393C16.9333 27.7972 16.8583 27.8756 16.8044 27.968C16.7505 28.0605 16.7193 28.1644 16.7133 28.2712L16.7233 31.343C16.7233 31.543 16.8623 31.619 17.0333 31.52C17.1229 31.4619 17.1975 31.3832 17.2507 31.2905C17.3039 31.1978 17.3342 31.0938 17.3393 30.9871ZM19.6371 29.6601L19.6281 26.5884C19.6281 26.3944 19.4881 26.3154 19.3201 26.4124C19.2311 26.4705 19.157 26.5487 19.1038 26.6408C19.0507 26.7329 19.0199 26.8362 19.0141 26.9423L19.0231 30.0151C19.0231 30.2151 19.1631 30.2911 19.3311 30.1931C19.4208 30.135 19.4953 30.0563 19.5485 29.9636C19.6017 29.8709 19.6321 29.7669 19.6371 29.6601Z" fill="#B28AFD"/>
<path id="Vector_55" d="M22.6139 31.5862C22.5389 31.5422 22.4399 31.5482 22.3389 31.6062L12.4077 37.3408C12.3177 37.3928 12.2477 37.3898 12.2077 37.3288C12.1987 37.3188 12.1347 37.2218 12.2177 37.0168L12.7656 35.6829C12.797 35.6077 12.814 35.5273 12.8156 35.4459C12.8161 35.4268 12.8151 35.4078 12.8126 35.3889L11.9567 29.2313L11.9507 29.1843C11.9473 29.1496 11.9378 29.1158 11.9227 29.0843L11.4237 28.1034C11.3995 28.05 11.3642 28.0022 11.3203 27.9633C11.2764 27.9243 11.2247 27.8951 11.1687 27.8774C11.0257 27.8324 10.8568 27.8644 10.6888 27.9624L9.51385 28.6404C9.41561 28.7031 9.3339 28.7885 9.2756 28.8895C9.2173 28.9904 9.18413 29.1039 9.17888 29.2203C9.17888 29.3373 9.22087 29.4253 9.29887 29.4693C9.37386 29.5143 9.47286 29.5053 9.57385 29.4473L10.7598 28.7654L11.2337 29.7083L12.0697 35.7249L11.5897 36.8978C11.3997 37.3548 11.3947 37.7857 11.5727 38.0507C11.6797 38.2077 11.8327 38.2857 12.0147 38.2857C12.1751 38.28 12.3313 38.2324 12.4676 38.1477L22.3989 32.4131C22.4972 32.3504 22.5789 32.2649 22.6372 32.164C22.6955 32.0631 22.7287 31.9496 22.7339 31.8331C22.7339 31.7182 22.6909 31.6302 22.6139 31.5862Z" fill="#E3E7F0"/>
<path id="Vector_56" d="M33.3651 13.9396V18.4893C33.3651 18.9392 33.0451 19.4792 32.6652 19.7092L27.0556 22.899L25.6957 26.1287L24.7357 25.5888L24.8057 24.1889L24.6657 24.2689C24.4758 24.3788 24.3058 24.3888 24.1758 24.3189L23.2058 23.7689C23.0859 23.6989 23.0059 23.5389 23.0059 23.3189V18.7692C23.0059 18.3093 23.3158 17.7693 23.7058 17.5593L31.6952 12.9997C31.8952 12.8897 32.0752 12.8797 32.2052 12.9497L33.1151 13.4796C33.2651 13.5396 33.3551 13.6996 33.3651 13.9396Z" fill="#497BFE"/>
<path id="Vector_57" d="M33.3651 13.9396V18.4893C33.3651 18.9392 33.0451 19.4792 32.6652 19.7092L27.0556 22.899L25.6957 26.1287L24.7357 25.5888L24.8057 24.1889L24.6657 24.2689C24.4758 24.3788 24.3058 24.3888 24.1758 24.3189L23.2058 23.7689C23.0859 23.6989 23.0059 23.5389 23.0059 23.3189V18.7692C23.0059 18.3093 23.3158 17.7693 23.7058 17.5593L31.6952 12.9997C31.8952 12.8897 32.0752 12.8797 32.2052 12.9497L33.1151 13.4796C33.2651 13.5396 33.3551 13.6996 33.3651 13.9396Z" fill="#57B3FE"/>
<path id="Vector_58" d="M25.6948 26.1263L24.7369 25.5873L24.8689 23.0635L25.8268 23.6034L25.6948 26.1263Z" fill="#497BFE"/>
<path id="Vector_59" d="M33.1512 13.4964C33.0232 13.4164 32.8542 13.4264 32.6562 13.5364L24.6668 18.0901C24.2798 18.3181 23.9628 18.853 23.9628 19.3V23.8597C23.9628 24.0867 24.0428 24.2357 24.1708 24.3147L23.2109 23.7697C23.0809 23.6997 23.0019 23.5417 23.0019 23.3237V18.764C23.0019 18.3091 23.3189 17.7741 23.7059 17.5551L31.6953 13.0005C31.8933 12.8915 32.0723 12.8825 32.2013 12.9505L33.1512 13.4964Z" fill="#5094FF"/>
<path id="Vector_60" d="M24.6639 18.0896L32.6563 13.5399C33.0423 13.3169 33.3592 13.4979 33.3612 13.9408V18.4935C33.3622 18.9365 33.0473 19.4835 32.6613 19.7064L27.0547 22.8942L25.6948 26.126L25.8268 23.6032L24.6689 24.2631C24.2829 24.4871 23.9649 24.3061 23.9639 23.8631V19.3035C23.9619 18.8525 24.2779 18.3125 24.6639 18.0896Z" fill="#57B3FE"/>
<path id="Vector_61" d="M25.8117 19.0327L26.1047 19.8926L27.0466 19.3487L26.2846 20.4256L26.5806 21.2875L25.8177 21.0875L25.0577 22.1655L25.3457 20.9666L24.5828 20.7716L25.5247 20.2276L25.8117 19.0327ZM28.6595 17.4138L28.9525 18.2737L29.8944 17.7298L29.1314 18.8067L29.4284 19.6686L28.6655 19.4687L27.9055 20.5466L28.1935 19.3477L27.4306 19.1527L28.3725 18.6087L28.6595 17.4138ZM31.5063 15.7949L31.7993 16.6549L32.7412 16.1109L31.9792 17.1868L32.2752 18.0488L31.5123 17.8488L30.7533 18.9287L31.0403 17.7288L30.2774 17.5328L31.2193 16.9898L31.5063 15.7949Z" fill="white"/>
<path id="Vector_62" d="M10.4152 33.2574C10.4152 33.2479 10.4056 33.2574 10.4056 33.2574C10.3961 33.2479 10.3865 33.2479 10.3769 33.2383L10.4152 33.2574Z" fill="#78E75A"/>
<path id="Vector_63" d="M10.6468 38.8888C10.6468 39.2687 10.3768 39.7387 10.0468 39.9287L9.56687 40.1987L9.80685 41.9185L8.69693 41.2686L8.27696 40.9486L2.20739 44.4084C1.99741 44.5284 1.81742 44.5084 1.70743 44.3884C1.72743 44.4084 1.74742 44.4284 1.77742 44.4484L0.877487 43.9084C0.767495 43.8484 0.707499 43.7184 0.6975 43.5284L0.6875 38.2988C0.6875 37.9188 0.947482 37.4489 1.28746 37.2589L9.1269 32.7792C9.28689 32.6792 9.43688 32.6792 9.54687 32.7392L10.3768 33.2392C10.3468 33.2292 10.3168 33.2292 10.2868 33.2292C10.3268 33.2292 10.3668 33.2391 10.4068 33.2591C10.4068 33.2591 10.4168 33.2491 10.4168 33.2591C10.5468 33.3091 10.6268 33.4491 10.6268 33.6591L10.6468 38.8888Z" fill="#78E75A"/>
<path id="Vector_64" d="M10.6468 38.8888C10.6468 39.2687 10.3768 39.7387 10.0468 39.9287L9.56687 40.1987L9.80685 41.9185L8.69693 41.2686L8.27696 40.9486L2.20739 44.4084C1.99741 44.5284 1.81742 44.5084 1.70743 44.3884C1.72743 44.4084 1.74742 44.4284 1.77742 44.4484L0.877487 43.9084C0.767495 43.8484 0.707499 43.7184 0.6975 43.5284L0.6875 38.2988C0.6875 37.9188 0.947482 37.4489 1.28746 37.2589L9.1269 32.7792C9.28689 32.6792 9.43688 32.6792 9.54687 32.7392L10.3768 33.2392L10.4168 33.2591C10.5468 33.3091 10.6268 33.4491 10.6268 33.6591L10.6468 38.8888Z" fill="#78E75A"/>
<path id="Vector_65" d="M9.80285 41.9211L8.69492 41.2651L7.30602 40.2122L8.41394 40.8682L9.80285 41.9211ZM10.4548 33.2757C10.3448 33.2077 10.1918 33.2157 10.0218 33.3097L2.19039 37.7894C1.85841 37.9774 1.58643 38.4533 1.58643 38.8273L1.60343 44.0629C1.60343 44.2499 1.67142 44.3859 1.78241 44.4449L0.875478 43.9109C0.765486 43.8509 0.70549 43.715 0.697491 43.528L0.688492 38.2933C0.688492 37.9194 0.952472 37.4434 1.28345 37.2564L9.12289 32.7747C9.28488 32.6817 9.43787 32.6727 9.54886 32.7407L10.4548 33.2757Z" fill="#5EC363"/>
<path id="Vector_66" d="M10.0228 33.3118C10.3538 33.1218 10.6268 33.2758 10.6278 33.6568L10.6428 38.8884C10.6428 39.2684 10.3728 39.7364 10.0428 39.9284L9.56984 40.2003L9.80283 41.9202L8.41393 40.8683L2.20837 44.406C1.87639 44.596 1.60441 44.442 1.60341 44.0611L1.58841 38.8294C1.58841 38.4495 1.85839 37.9815 2.18837 37.7895L10.0228 33.3118Z" fill="#78E75A"/>
<path id="Vector_67" d="M6.5471 35.7829C6.6591 35.7249 6.81009 35.7139 6.92908 35.9539C6.93808 35.9739 7.10206 36.3539 6.77709 37.5048C6.76428 37.549 6.75195 37.5933 6.74009 37.6378L8.19899 36.7959C8.36398 36.6999 8.50196 36.7759 8.50296 36.9658C8.4987 37.0933 8.46112 37.2174 8.39397 37.3258C8.33244 37.4372 8.24324 37.5309 8.13499 37.5978C8.33798 37.4808 8.50497 37.5758 8.50497 37.8058C8.50045 37.9356 8.46331 38.0621 8.39697 38.1738C8.33401 38.2864 8.24397 38.3816 8.13499 38.4507C8.34098 38.3317 8.50697 38.4267 8.50797 38.6637C8.50797 38.7707 8.46797 38.8917 8.40797 38.9977C8.34992 39.0996 8.26746 39.1855 8.16799 39.2477L7.934 39.3827C8.12099 39.2747 8.27398 39.3627 8.27598 39.5777C8.27598 39.6886 8.23598 39.8086 8.17599 39.9146C8.11794 40.0166 8.03547 40.1025 7.93601 40.1646L5.83615 41.3775C5.62117 41.5015 5.41218 41.5395 5.2402 41.4875L5.1522 41.4595L5.1452 38.8827C5.2062 38.8227 6.38012 37.6658 6.40711 36.0229C6.41062 35.9749 6.42505 35.9283 6.44932 35.8867C6.47358 35.8451 6.50703 35.8096 6.5471 35.7829Z" fill="white"/>
<path id="Vector_68" d="M4.98718 38.7932C5.07217 38.7442 5.14417 38.7852 5.14517 38.8822L5.15217 41.592C5.15217 41.692 5.08117 41.813 4.99718 41.862L3.88725 42.502C3.80026 42.5519 3.73127 42.513 3.73127 42.412L3.72327 39.7021C3.72327 39.6062 3.79126 39.4832 3.87926 39.4322L4.98718 38.7932ZM4.43922 41.716C4.50858 41.6716 4.56629 41.6111 4.60752 41.5398C4.64875 41.4685 4.6723 41.3883 4.6762 41.306C4.6762 41.156 4.57221 41.0931 4.43822 41.17C4.36914 41.2148 4.31164 41.2753 4.27045 41.3465C4.22926 41.4178 4.20554 41.4978 4.20123 41.58C4.20123 41.731 4.30822 41.792 4.43922 41.716Z" fill="#4C5C75"/>
<path id="Vector_69" d="M4.43726 41.1699C4.57225 41.0929 4.67525 41.1549 4.67625 41.3058C4.67625 41.4568 4.57425 41.6388 4.43926 41.7158C4.30827 41.7918 4.20128 41.7308 4.20128 41.5798C4.20128 41.4298 4.30627 41.2459 4.43826 41.1699H4.43726Z" fill="white"/>
</g>
</svg>
