<svg width="19" height="20" viewBox="0 0 19 20" fill="none" xmlns="http://www.w3.org/2000/svg">
<path d="M18.8076 11.3831L17.2243 5.68645C16.7602 4.01756 15.7516 2.55169 14.3587 1.52184C12.9659 0.491992 11.2688 -0.0427302 9.53718 0.00266986C7.80556 0.04807 6.1388 0.670987 4.80185 1.7724C3.46489 2.87382 2.53447 4.39053 2.15846 6.08145L0.932629 11.5939C0.797225 12.2031 0.800355 12.8348 0.941789 13.4425C1.08322 14.0503 1.35935 14.6185 1.74978 15.1052C2.14021 15.592 2.63498 15.9848 3.19755 16.2547C3.76013 16.5247 4.37615 16.6648 5.00013 16.6648H5.92846C6.11972 17.6067 6.63074 18.4535 7.37491 19.0618C8.11909 19.67 9.05066 20.0023 10.0118 20.0023C10.9729 20.0023 11.9045 19.67 12.6487 19.0618C13.3929 18.4535 13.9039 17.6067 14.0951 16.6648H14.7935C15.4358 16.6648 16.0695 16.5164 16.6449 16.231C17.2204 15.9456 17.7221 15.531 18.1108 15.0197C18.4995 14.5083 18.7648 13.914 18.8858 13.2831C19.0068 12.6523 18.9795 12.002 18.8076 11.3831ZM10.0118 18.3314C9.49658 18.3293 8.9946 18.168 8.57455 17.8697C8.15449 17.5714 7.83686 17.1505 7.66513 16.6648H12.3585C12.1867 17.1505 11.8691 17.5714 11.449 17.8697C11.029 18.168 10.527 18.3293 10.0118 18.3314ZM16.7835 14.0106C16.5512 14.3187 16.2504 14.5683 15.9048 14.7398C15.5592 14.9112 15.1784 14.9996 14.7926 14.9981H5.00013C4.62578 14.9981 4.25623 14.9139 3.91875 14.7519C3.58126 14.5899 3.28447 14.3542 3.05026 14.0622C2.81606 13.7702 2.65043 13.4293 2.5656 13.0647C2.48076 12.7 2.4789 12.321 2.56013 11.9556L3.78513 6.44228C4.08042 5.11412 4.81122 3.92278 5.86134 3.05766C6.91147 2.19253 8.22065 1.70326 9.58077 1.66763C10.9409 1.63199 12.2739 2.05205 13.3679 2.86101C14.4619 3.66996 15.254 4.8214 15.6185 6.13228L17.2018 11.8289C17.3064 12.2001 17.3231 12.5905 17.2505 12.9692C17.1778 13.3479 17.0179 13.7045 16.7835 14.0106Z" fill="#FF7F00"/>
</svg>
