<svg width="36" height="48" viewBox="0 0 36 48" fill="none" xmlns="http://www.w3.org/2000/svg">
<g id="Group">
<path id="Vector" d="M17.8868 20.0586L29.1231 26.5887L29.1441 33.5939L17.9088 27.0637L17.8868 20.0586Z" fill="#FEBC1F"/>
<path id="Vector_2" d="M35.7342 22.7703L29.1231 26.5874L17.8868 20.0573L24.499 16.2412L35.7342 22.7703Z" fill="#FFD06C"/>
<path id="Vector_3" d="M35.7342 22.7705L35.7562 29.7756L29.1441 33.5937L29.1231 26.5876L35.7342 22.7705Z" fill="#F9A83D"/>
<path id="Vector_4" d="M20.2719 18.6815L22.1349 17.6055L33.3712 24.1356L31.5071 25.2106L20.2719 18.6815Z" fill="#F3F1FC"/>
<path id="Vector_5" d="M31.5071 25.2108V27.5358L32.4391 26.0598L33.3711 26.4458V24.1357L31.5071 25.2108Z" fill="#DEDFFB"/>
<path id="Vector_6" d="M32.4061 31.1627L29.6361 32.7618L29.6331 30.9867L32.4001 29.3877L32.4061 31.1627Z" fill="#4C5C75"/>
<path id="Vector_7" d="M30.1351 30.9202L30.1391 32.2492L29.9391 32.3642L29.9361 31.0342L30.1351 30.9202ZM30.5051 30.7062L30.5091 32.0362L30.3691 32.1162L30.3641 30.7862L30.5051 30.7062ZM32.0981 29.7861L32.1011 31.1162L31.9611 31.1962L31.9571 29.8671L32.0981 29.7861ZM31.3011 30.2461L31.3041 31.5762L31.1641 31.6572L31.1601 30.3271L31.3011 30.2461ZM31.7291 30.0001L31.7331 31.3292L31.5331 31.4442L31.5301 30.1141L31.7291 30.0001ZM30.9321 30.4601L30.9361 31.7892L30.7361 31.9042L30.7331 30.5742L30.9321 30.4601Z" fill="white"/>
<path id="Vector_8" d="M21.0929 18.2061L21.3129 18.0791L32.5491 24.6092L32.3291 24.7362L21.0929 18.2061Z" fill="#E9E7FC"/>
<path id="Vector_9" d="M17.8868 12.1191L29.1231 18.6493L29.1441 25.6544L17.9088 19.1243L17.8868 12.1191Z" fill="#FEBC1F"/>
<path id="Vector_10" d="M35.7342 14.8319L29.1231 18.6489L17.8868 12.1198L24.499 8.30273L35.7342 14.8319Z" fill="#FFD06C"/>
<path id="Vector_11" d="M35.7342 14.8311L35.7562 21.8372L29.1441 25.6543L29.1231 18.6481L35.7342 14.8311Z" fill="#F9A83D"/>
<path id="Vector_12" d="M20.2719 10.742L22.1349 9.66602L33.3712 16.1962L31.5071 17.2712L20.2719 10.742Z" fill="#F3F1FC"/>
<path id="Vector_13" d="M31.5071 17.2713V19.5964L32.4391 18.1203L33.3711 18.5063V16.1963L31.5071 17.2713Z" fill="#DEDFFB"/>
<path id="Vector_14" d="M32.4061 23.2233L29.6361 24.8233L29.6331 23.0473L32.4001 21.4482L32.4061 23.2233Z" fill="#4C5C75"/>
<path id="Vector_15" d="M30.1351 22.9797L30.1391 24.3097L29.9391 24.4247L29.9361 23.0947L30.1351 22.9797ZM30.5051 22.7667L30.5091 24.0967L30.3691 24.1767L30.3641 22.8477L30.5051 22.7667ZM32.0981 21.8467L32.1011 23.1767L31.9611 23.2577L31.9571 21.9277L32.0981 21.8467ZM31.3011 22.3077L31.3041 23.6377L31.1641 23.7177L31.1601 22.3877L31.3011 22.3077ZM31.7291 22.0597L31.7331 23.3897L31.5331 23.5047L31.5301 22.1747L31.7291 22.0597ZM30.9321 22.5197L30.9361 23.8497L30.7361 23.9647L30.7331 22.6347L30.9321 22.5197Z" fill="white"/>
<path id="Vector_16" d="M21.0929 10.2686L21.3129 10.1406L32.5491 16.6708L32.3291 16.7978L21.0929 10.2686Z" fill="#E9E7FC"/>
<path id="Vector_17" d="M22.9289 2.2992C22.5309 2.0622 21.9719 2.0992 21.3559 2.4592L5.80561 11.4204H5.79561C4.57259 12.1314 3.60557 13.8184 3.60557 15.2115L3.68257 46.4391C3.68257 47.1311 3.93857 47.6241 4.32658 47.8521L0.908515 45.6981C0.519507 45.4711 0.273502 44.9881 0.263502 44.2861V42.201L0.1875 13.0594H0.1975C0.1875 11.6664 1.17352 9.96936 2.38754 9.26834L17.9378 0.298159C18.5629 -0.0518478 19.1129 -0.0818484 19.5109 0.146156L22.9289 2.2992Z" fill="#1D2943"/>
<path id="Vector_18" d="M20.2639 0.596165C19.8659 0.35916 19.3069 0.397161 18.6909 0.757169L3.14056 9.71735H3.13056C1.90753 10.4294 0.940515 12.1164 0.940515 13.5094L1.01652 44.7371C1.01652 45.4291 1.27252 45.9221 1.66153 46.1491L0.908515 45.6991C0.519507 45.4711 0.273502 44.9881 0.263502 44.2861V42.201L0.1875 13.0594H0.1975C0.1875 11.6664 1.17352 9.96936 2.38754 9.26834L17.9378 0.298159C18.5629 -0.0518478 19.1129 -0.0818484 19.5109 0.146156L20.2639 0.596165Z" fill="#1D2943"/>
<path id="Vector_19" d="M21.3589 2.45541C22.5759 1.75239 23.562 2.3144 23.566 3.70743L23.643 34.9331C23.647 36.3311 22.6669 38.0281 21.4499 38.7312L5.89161 47.6973C4.67458 48.4003 3.68857 47.8383 3.68456 46.4393L3.60856 15.2137C3.60456 13.8216 4.58358 12.1246 5.80061 11.4226L21.3589 2.45541Z" fill="#4C5C75"/>
<path id="Vector_20" d="M22.0019 6.01953L22.0689 33.4361L5.24962 43.1763L5.18262 15.7587L22.0019 6.01953Z" fill="white"/>
<path id="Vector_21" d="M11.2207 10.4211C11.1895 10.3672 11.1692 10.3078 11.161 10.2461C11.1528 10.1845 11.1569 10.1218 11.173 10.0617C11.189 10.0016 11.2168 9.94523 11.2547 9.89587C11.2926 9.84652 11.3398 9.80512 11.3937 9.77405L15.3838 7.47001C15.4927 7.40702 15.6221 7.38986 15.7436 7.4223C15.8651 7.45474 15.9688 7.53414 16.0318 7.64301C16.0948 7.75188 16.1119 7.88132 16.0795 8.00285C16.0471 8.12437 15.9677 8.22803 15.8588 8.29102L11.8667 10.5951C11.8129 10.6261 11.7535 10.6462 11.6918 10.6542C11.6302 10.6622 11.5677 10.658 11.5077 10.6419C11.4477 10.6257 11.3915 10.5979 11.3422 10.56C11.293 10.5221 11.2517 10.4749 11.2207 10.4211ZM14.2058 39.1437C14.8338 38.7806 15.3538 39.0727 15.3558 39.8037C15.3578 40.5317 14.8418 41.4267 14.2128 41.7897C13.5757 42.1567 13.0557 41.8597 13.0537 41.1337C13.0517 40.4017 13.5687 39.5117 14.2058 39.1437Z" fill="white"/>
<g id="Group_2">
<path id="Vector_22" d="M2.93455 23.4396L2.92455 26.4797C2.92455 26.6697 2.86455 26.7897 2.75454 26.8497L2.37454 27.0697C2.27453 27.1497 2.11453 27.1497 1.94453 27.0497C1.62452 26.8597 1.36452 26.4197 1.37452 26.0496V23.0096C1.38452 22.8096 1.45452 22.6796 1.57452 22.6296L1.95453 22.4096C2.05453 22.3496 2.20453 22.3496 2.35454 22.4496C2.67454 22.6296 2.94455 23.0696 2.93455 23.4396ZM2.94455 16.8495V19.8895C2.94455 20.0695 2.88455 20.1995 2.77454 20.2595L2.36454 20.4995C2.26453 20.5595 2.11453 20.5495 1.95453 20.4595C1.63452 20.2795 1.38452 19.8295 1.38452 19.4595L1.39452 16.4195C1.39452 16.1694 1.51452 16.0194 1.69452 16.0094C1.67452 16.0094 1.64452 16.0194 1.62452 16.0194L1.96453 15.8194C2.07453 15.7494 2.21453 15.7694 2.37454 15.8594C2.69454 16.0394 2.95455 16.4895 2.94455 16.8495Z" fill="#C9CEE2"/>
</g>
<path id="Vector_23" d="M2.94854 16.8486L2.94054 19.8917C2.94054 20.0717 2.88054 20.2017 2.77454 20.2617L2.36553 20.4967C2.47154 20.4367 2.53954 20.3077 2.53954 20.1267L2.54654 17.0836C2.54654 16.7216 2.29053 16.2756 1.97253 16.0946C1.83752 16.0196 1.72352 15.9966 1.62552 16.0196L1.96553 15.8216C2.07253 15.7536 2.21553 15.7686 2.37453 15.8596C2.69154 16.0396 2.95554 16.4856 2.94854 16.8486Z" fill="#C9CEE2"/>
<path id="Vector_24" d="M1.97052 16.0935C2.28853 16.2775 2.54753 16.7215 2.54653 17.0865L2.53853 20.1276C2.53753 20.4936 2.27653 20.6426 1.95852 20.4586C1.63951 20.2756 1.38551 19.8286 1.38651 19.4626L1.39451 16.4225C1.39551 16.0565 1.65251 15.9105 1.97052 16.0935Z" fill="white"/>
<path id="Vector_25" d="M2.93257 23.4421L2.92557 26.4771C2.92557 26.6661 2.86557 26.7871 2.75957 26.8471L2.35056 27.0822C2.45656 27.0222 2.52456 26.8941 2.52456 26.7121L2.53156 23.6771C2.53156 23.3071 2.27456 22.8621 1.95755 22.6801C1.79155 22.5901 1.64754 22.5821 1.54254 22.6431L1.95155 22.4071C2.05755 22.3471 2.20055 22.3541 2.35956 22.4451C2.67656 22.6261 2.93957 23.0721 2.93257 23.4421Z" fill="#C9CEE2"/>
<path id="Vector_26" d="M1.95453 22.6804C2.27353 22.8644 2.53254 23.3084 2.53154 23.6745L2.52254 26.7145C2.52254 27.0805 2.26053 27.2295 1.94253 27.0455C1.62452 26.8625 1.36952 26.4155 1.37052 26.0495L1.37952 23.0094C1.37952 22.6434 1.63652 22.4974 1.95453 22.6804Z" fill="white"/>
<path id="Vector_27" d="M23.015 38.5291L23.011 40.0411L13.5808 45.5212L13.5858 44.0082L23.015 38.5291ZM21.3649 21.1097C21.3649 22.5098 20.3849 24.2098 19.1749 24.9098L9.07469 30.7399C8.46468 31.0999 7.90467 31.1299 7.50466 30.8899L6.48464 30.2999C6.08463 30.0699 5.83463 29.5799 5.83463 28.8899C5.83463 27.4899 6.81464 25.7898 8.02467 25.0898L18.1249 19.2597C18.7349 18.9097 19.2849 18.8797 19.6949 19.0997L20.7249 19.6997C21.1149 19.9297 21.3649 20.4197 21.3649 21.1097Z" fill="#1D2943"/>
<path id="Vector_28" d="M20.7219 19.6996C20.3199 19.4746 19.7649 19.5036 19.1589 19.8536L9.05869 25.6807C7.84566 26.3897 6.85964 28.0838 6.86764 29.4848C6.86764 30.1788 7.11565 30.6678 7.50966 30.8948L6.47964 30.2948C6.08563 30.0698 5.83762 29.5798 5.83762 28.8868C5.83062 27.4847 6.81664 25.7907 8.02766 25.0897L18.1289 19.2556C18.7349 18.9056 19.2899 18.8756 19.6919 19.1016L20.7219 19.6996Z" fill="#1D2943"/>
<path id="Vector_29" d="M19.1569 19.8551C20.3689 19.1551 21.3609 19.7151 21.3649 21.1132C21.3689 22.5112 20.3839 24.2132 19.1719 24.9122L9.07469 30.7393C7.85767 31.4424 6.87065 30.8794 6.86665 29.4813C6.86265 28.0833 7.84367 26.3853 9.05969 25.6832L19.1569 19.8551Z" fill="#4C5C75"/>
<path id="Vector_30" d="M20.6369 21.1211C20.6369 21.2211 20.6259 21.3311 20.6149 21.4421C20.5479 21.9851 20.3149 22.5721 19.9949 23.0821C19.9499 23.1481 19.9169 23.2041 19.8719 23.2591C19.5729 23.6911 19.2079 24.0461 18.8089 24.2791L10.4937 29.0792L9.16468 29.8442C8.95067 29.9492 8.49766 30.3092 8.09065 30.3092C7.65865 30.3092 7.60264 29.7892 7.59164 29.4792C7.59164 29.0222 7.75765 28.3452 8.12366 27.7172V27.7072C8.45566 27.1192 8.92067 26.6092 9.43068 26.3212L9.47468 26.2992L10.8267 25.5131L14.6488 23.3081L14.7878 23.2261L19.2409 20.645L19.5179 20.49C19.8169 20.323 20.0159 20.29 20.1379 20.29C20.5699 20.29 20.6369 20.81 20.6369 21.1211Z" fill="#1D2943"/>
<path id="Vector_31" d="M25.349 37.7864L17.6188 42.2945L17.0618 42.6245L14.9988 43.8245L14.9908 43.8315L13.7908 44.5306C13.7748 44.5306 13.7748 44.5386 13.7598 44.5386C13.7518 44.5386 13.7438 44.5456 13.7358 44.5456H13.7208C13.6658 44.5856 13.6108 44.5926 13.5558 44.6086C13.4059 44.645 13.2492 44.6422 13.1007 44.6006C13.0147 44.5776 12.9207 44.5536 12.8257 44.5066C12.7557 44.4666 12.6927 44.4366 12.6217 44.4046C11.7197 43.8795 10.9907 42.6085 10.9907 41.5805L11.0217 32.2133C11.0217 31.2803 10.6137 30.2213 9.98569 29.3732C9.60968 28.8632 9.16267 28.4332 8.67566 28.1502L8.07965 27.8132C8.08765 27.7812 8.11165 27.7502 8.12665 27.7182V27.7032C8.45666 27.1142 8.91967 26.6042 9.42868 26.3232L9.47668 26.2982L10.8257 25.5142L14.6458 23.3101L17.6188 21.5921L19.0569 20.7471L20.2339 21.4301C20.3519 21.4931 20.4609 21.5631 20.5709 21.6501C21.7089 22.4811 22.5789 24.1131 22.5789 25.4862L22.5489 34.8444C22.5489 35.4014 22.7589 36.0214 23.0969 36.5624C23.285 36.8604 23.513 37.1424 23.757 37.3624C23.811 37.4104 23.858 37.4494 23.913 37.4884C23.999 37.5584 24.086 37.6144 24.18 37.6684C24.643 37.9434 25.043 37.9584 25.349 37.7864Z" fill="#F3F1FC"/>
<path id="Vector_32" d="M29.3151 38.7823V39.1873L20.0829 44.5674C19.8479 43.3124 19.1159 41.9293 17.9809 40.9423L27.132 35.6162C27.7901 35.6162 29.3151 37.2522 29.3151 38.7823Z" fill="#E9E7FC"/>
<path id="Vector_33" d="M17.0448 15.2696C17.0548 17.1597 15.7148 19.4697 14.0648 20.4197C13.1947 20.9297 12.4047 20.9497 11.8547 20.5697L11.0747 20.1197C10.5347 19.8097 10.2047 19.1497 10.2047 18.2097C10.2047 16.3097 11.5247 13.9996 13.1747 13.0596C14.0048 12.5696 14.7648 12.5296 15.2948 12.8396L16.1748 13.3496C16.7148 13.6696 17.0448 14.3296 17.0448 15.2696Z" fill="#DF3260"/>
<path id="Vector_34" d="M16.1758 13.3513C15.6318 13.0353 14.8808 13.0813 14.0518 13.5634C12.4037 14.5124 11.0717 16.8184 11.0767 18.7145C11.0827 19.6525 11.4137 20.3155 11.9467 20.6265L11.0767 20.1185C10.5367 19.8075 10.2057 19.1485 10.2057 18.2064C10.2007 16.3094 11.5267 14.0034 13.1748 13.0553C14.0048 12.5733 14.7608 12.5263 15.2998 12.8423L16.1758 13.3513Z" fill="#DF3260"/>
<path id="Vector_35" d="M14.0488 13.5615C15.6998 12.6085 17.0408 13.3725 17.0458 15.2696C17.0518 17.1596 15.7198 19.4667 14.0688 20.4197C12.4207 21.3717 11.0827 20.6057 11.0777 18.7157C11.0727 16.8186 12.4017 14.5126 14.0488 13.5615Z" fill="#F45170"/>
<path id="Vector_36" d="M13.8608 18.579C13.7908 18.699 13.7218 18.819 13.6408 18.933C13.4848 19.151 13.3988 19.243 13.1488 19.099L12.4808 18.715C12.1988 18.553 12.3148 18.248 12.5058 18.042C12.6598 17.876 12.7748 17.896 12.9268 17.984L13.4308 18.275C15.2428 15.1409 15.3308 14.9349 15.5068 14.8399C15.5788 14.8019 15.6738 14.7969 15.7368 14.8479C15.7758 14.8779 15.7968 14.9259 15.8068 14.9739C15.8548 15.2019 15.8668 15.0899 13.8608 18.579Z" fill="white"/>
<path id="Vector_37" d="M30.5251 38.7901V39.8901L18.9649 46.6202L18.2449 46.1902V45.1002C18.2449 44.5502 18.0449 43.9502 17.7249 43.4302C17.7249 43.4202 17.7149 43.4202 17.7149 43.4202L14.3048 45.4102C14.3248 45.4002 14.3348 45.3802 14.3548 45.3602C13.9248 45.6602 13.3048 45.6402 12.6248 45.2502C11.3147 44.4902 10.2647 42.6602 10.2647 41.1601L10.2947 31.7799C10.2947 31.0899 9.95471 30.2899 9.4547 29.6799C9.2247 29.3999 8.95469 29.1599 8.67468 28.9999L7.78467 28.4899C7.85467 28.2599 7.95467 28.0299 8.07467 27.8099L8.67468 28.1499C9.16469 28.4299 9.6047 28.8699 9.98471 29.3799C10.6147 30.2199 11.0247 31.2799 11.0247 32.2199L10.9947 41.5801C10.9947 42.6102 11.7147 43.8802 12.6248 44.4102C12.6948 44.4402 12.7548 44.4702 12.8248 44.5102C12.9248 44.5502 13.0148 44.5802 13.1048 44.6002C13.2648 44.6302 13.4248 44.6302 13.5548 44.6102C13.6148 44.5902 13.6648 44.5902 13.7248 44.5502H13.7348C13.7448 44.5502 13.7548 44.5402 13.7548 44.5402C14.0648 44.3702 14.2648 44.0102 14.2648 43.4602V43.2802L13.5348 43.7102H13.4648L13.3348 43.7902C13.3248 43.7902 13.3148 43.7902 13.2948 43.7802C13.2648 43.7802 13.2348 43.7702 13.2048 43.7602C13.1548 43.7302 13.0848 43.6902 13.0148 43.6602C12.3948 43.2702 11.8347 42.3002 11.8347 41.5801L11.8647 32.2199C11.8647 31.1199 11.4247 29.8999 10.6647 28.8699C10.2547 28.3199 9.77471 27.8599 9.2747 27.5298C9.4547 27.3298 9.64471 27.1698 9.83471 27.0598L18.0449 22.3197L19.0549 21.7197C20.0609 22.3027 19.9079 22.2037 20.0549 22.3097C21.0049 23.0098 21.7349 24.3998 21.7349 25.4898L21.7049 34.84C21.7049 35.53 21.9449 36.29 22.365 36.99L26.515 34.57C26.935 34.32 27.5351 34.36 28.1851 34.74C29.4851 35.48 30.5351 37.3 30.5251 38.7901Z" fill="#F3F1FC"/>
<path id="Vector_38" d="M27.032 35.4551C26.743 35.6231 26.557 35.9861 26.557 36.4991V37.1611C26.557 37.9061 26.287 38.4281 25.867 38.6801L14.3038 45.4103C15.1988 44.8843 14.9538 43.5302 14.9938 43.2282C14.9938 42.7162 15.1798 42.3522 15.4688 42.1842L27.032 35.4551Z" fill="#F3F1FC"/>
<path id="Vector_39" d="M13.2948 43.7832C13.2678 43.7752 13.2348 43.7692 13.2028 43.7542C13.1407 43.7196 13.0773 43.6876 13.0127 43.6582C12.3907 43.2741 11.8317 42.2961 11.8317 41.5811L11.8627 32.2169C11.8627 31.1209 11.4257 29.9039 10.6627 28.8739C10.2507 28.3158 9.77268 27.8548 9.27267 27.5298C9.45168 27.3278 9.64368 27.1658 9.83668 27.0598L18.0408 22.3207L19.0579 21.7207C19.9619 22.2457 19.9459 22.2287 20.0509 22.3107C21.0069 23.0107 21.7379 24.3978 21.7379 25.4868L21.7069 34.843C21.7069 35.54 21.9469 36.308 22.3829 37.008C22.6709 37.464 22.9949 37.823 23.2479 38.035L17.1948 41.5681C17.0948 41.6281 14.3098 43.2531 14.4818 43.1531L14.4738 43.1601L13.5368 43.7052H13.4668L13.3368 43.7912C13.3227 43.789 13.3087 43.7863 13.2948 43.7832Z" fill="white"/>
<path id="Vector_40" d="M30.5271 38.7919V39.8919L18.9639 46.6201V45.5201C18.9739 44.029 17.9209 42.211 16.6248 41.456C15.9728 41.084 15.3758 41.046 14.9568 41.298L26.52 34.5678C26.9401 34.3168 27.5361 34.3538 28.1881 34.7358C29.4841 35.4819 30.5371 37.2989 30.5281 38.7909L30.5271 38.7919Z" fill="#E9E7FC"/>
<path id="Vector_41" d="M18.9769 45.5271L18.9689 46.6102V46.6252L18.9609 46.6172L18.2469 46.1941V45.0961C18.2469 44.5541 18.0428 43.9501 17.7208 43.4251C17.5423 43.1271 17.3201 42.8574 17.0618 42.6251C16.9297 42.4973 16.7823 42.3865 16.6228 42.2951C16.2068 42.0601 15.8228 42.0201 15.5328 42.1541C15.2788 42.2631 15.1418 42.5031 15.0538 42.7661V42.7811C15.0238 42.8831 15.0138 43.0031 15.0058 43.1231C15.0038 43.1581 14.9988 43.1921 14.9988 43.2281C14.9788 43.5541 15.0618 44.1171 14.8888 44.6331C14.7958 44.9601 14.5318 45.2781 14.3788 45.3541C13.9488 45.6601 13.3128 45.6441 12.6217 45.2441C11.3117 44.4911 10.2607 42.6561 10.2607 41.157L10.2917 31.7829C10.2917 31.0848 9.95469 30.2848 9.45268 29.6808C9.23918 29.4061 8.97552 29.1743 8.67566 28.9978L7.78165 28.4878C7.85165 28.2608 7.95465 28.0328 8.07965 27.8138L8.67566 28.1508C9.16267 28.4328 9.60968 28.8648 9.98569 29.3748C10.6137 30.2218 11.0217 31.2808 11.0217 32.2149L10.9907 41.5811C10.9907 42.6091 11.7207 43.8801 12.6217 44.4051C12.6917 44.4371 12.7557 44.4681 12.8257 44.5071C12.9197 44.5541 13.0147 44.5771 13.1008 44.6011C13.2658 44.6331 13.4218 44.6331 13.5558 44.6091C13.6108 44.5931 13.6658 44.5861 13.7208 44.5461H13.7358C13.7438 44.5461 13.7518 44.5391 13.7598 44.5391C14.0658 44.3741 14.2698 44.0051 14.2698 43.4641V42.8041C14.2698 42.0131 14.5758 41.471 15.0458 41.252H15.0538C15.2308 41.181 15.3658 41.142 15.5718 41.142C15.8858 41.142 16.2468 41.236 16.6228 41.4561C16.6388 41.4631 16.6548 41.4711 16.6698 41.4861C16.8918 41.5981 17.2908 41.9391 17.4858 42.1461C17.5328 42.1931 17.5798 42.2401 17.6188 42.2951C17.8388 42.5331 18.1238 42.9421 18.1689 43.0321C18.1815 43.0459 18.1916 43.0618 18.1989 43.0791C18.2159 43.0951 18.2159 43.1111 18.2229 43.1261C18.6029 43.6581 18.9769 44.7381 18.9769 45.5271ZM20.0699 23.5017L11.4227 28.4978C11.296 28.3102 11.1585 28.1302 11.0107 27.9588L19.5809 23.0137C19.7579 23.1487 19.9179 23.3167 20.0699 23.5017ZM20.8939 25.6897V26.4637L12.6097 31.2488C12.5693 31.0179 12.5129 30.79 12.4407 30.5668L20.8939 25.6897Z" fill="#DEDFFB"/>
<path id="Vector_42" d="M19.7919 45.1665C19.6649 43.5784 18.6429 41.8134 17.3168 40.9004L26.942 35.2973C26.9991 35.2646 27.0643 35.2487 27.13 35.2512C27.304 35.2512 27.529 35.3273 27.764 35.4643C28.7981 36.0593 29.6941 37.6103 29.6861 38.7863V39.4073L19.7919 45.1665Z" fill="white"/>
<path id="Vector_43" d="M28.6151 38.9924L20.5549 43.6864C20.4979 43.5004 20.3749 43.2284 20.2949 43.0414L28.5 38.3063C28.54 38.4683 28.6151 38.9924 28.6151 38.9924ZM27.595 36.8003L19.3569 41.5604C19.2345 41.3797 19.1016 41.2064 18.9589 41.0414L27.125 36.3313C27.295 36.4603 27.449 36.6213 27.595 36.8003ZM20.8969 29.5352V30.4522L17.5968 32.3622V31.4362L20.8969 29.5352ZM20.8969 32.1022V33.0282L17.5968 34.9283V34.0122L20.8969 32.1022ZM20.8969 34.6783V35.5953L17.5968 37.5053V36.5793L20.8969 34.6783Z" fill="#DEDFFB"/>
<path id="Vector_44" d="M16.9428 31.249L16.9628 38.2362L12.9707 40.5412L12.9507 33.5541L16.9428 31.249Z" fill="#57B3FE"/>
</g>
</svg>
