<svg width="20" height="24" viewBox="0 0 20 24" fill="none" xmlns="http://www.w3.org/2000/svg">
<g clip-path="url(#clip0_11497_11121)">
<path d="M10.8511 2.83506C10.8511 2.61368 10.9391 2.40137 11.0956 2.24484C11.2521 2.0883 11.4645 2.00036 11.6858 2.00036C13.8989 2.00279 16.0206 2.88299 17.5854 4.44783C19.1502 6.01268 20.0304 8.13437 20.0329 10.3474C20.0329 10.5688 19.9449 10.7811 19.7884 10.9376C19.6319 11.0942 19.4196 11.1821 19.1982 11.1821C18.9768 11.1821 18.7645 11.0942 18.6079 10.9376C18.4514 10.7811 18.3635 10.5688 18.3635 10.3474C18.3615 8.57699 17.6573 6.87966 16.4054 5.6278C15.1536 4.37593 13.4562 3.67175 11.6858 3.66977C11.4645 3.66977 11.2521 3.58182 11.0956 3.42529C10.9391 3.26875 10.8511 3.05644 10.8511 2.83506ZM11.6858 7.00858C12.5713 7.00858 13.4206 7.36035 14.0467 7.9865C14.6729 8.61265 15.0247 9.46189 15.0247 10.3474C15.0247 10.5688 15.1126 10.7811 15.2691 10.9376C15.4257 11.0942 15.638 11.1821 15.8594 11.1821C16.0807 11.1821 16.293 11.0942 16.4496 10.9376C16.6061 10.7811 16.6941 10.5688 16.6941 10.3474C16.6927 9.01954 16.1647 7.74645 15.2257 6.80751C14.2868 5.86858 13.0137 5.3405 11.6858 5.33917C11.4645 5.33917 11.2521 5.42712 11.0956 5.58365C10.9391 5.74019 10.8511 5.9525 10.8511 6.17388C10.8511 6.39526 10.9391 6.60757 11.0956 6.7641C11.2521 6.92064 11.4645 7.00858 11.6858 7.00858ZM19.2758 15.9725C19.7595 16.4575 20.0312 17.1146 20.0312 17.7996C20.0312 18.4847 19.7595 19.1418 19.2758 19.6268L18.5162 20.5024C11.68 27.0473 -4.95566 10.4158 1.48825 3.55791L2.44816 2.72321C2.93377 2.253 3.58497 1.99289 4.26089 1.99913C4.93681 2.00538 5.5831 2.27749 6.05993 2.7566C6.0858 2.78247 7.63251 4.79161 7.63251 4.79161C8.09146 5.27376 8.34694 5.91423 8.34585 6.57988C8.34476 7.24554 8.08719 7.88517 7.62667 8.36581L6.66008 9.58114C7.195 10.8809 7.98147 12.0621 8.97431 13.0569C9.96714 14.0518 11.1468 14.8406 12.4454 15.3782L13.6683 14.4057C14.149 13.9456 14.7885 13.6883 15.4539 13.6874C16.1194 13.6864 16.7596 13.9419 17.2416 14.4007C17.2416 14.4007 19.2499 15.9466 19.2758 15.9725ZM18.1272 17.1861C18.1272 17.1861 16.1298 15.6494 16.1039 15.6236C15.932 15.4531 15.6996 15.3574 15.4574 15.3574C15.2153 15.3574 14.9829 15.4531 14.811 15.6236C14.7884 15.6469 13.1048 16.9883 13.1048 16.9883C12.9914 17.0786 12.8564 17.1378 12.7131 17.1601C12.5698 17.1823 12.4232 17.1668 12.2877 17.1152C10.6053 16.4888 9.07716 15.5082 7.80683 14.2397C6.53649 12.9712 5.5536 11.4446 4.92473 9.76311C4.86897 9.62576 4.85079 9.47604 4.87206 9.32934C4.89334 9.18264 4.95329 9.04426 5.04576 8.9284C5.04576 8.9284 6.38713 7.24397 6.40967 7.22227C6.58017 7.05031 6.67584 6.81795 6.67584 6.57579C6.67584 6.33363 6.58017 6.10127 6.40967 5.92931C6.38379 5.90427 4.8471 3.90515 4.8471 3.90515C4.67257 3.74865 4.44478 3.66484 4.21043 3.67089C3.97608 3.67694 3.75292 3.7724 3.5867 3.93771L2.62679 4.77241C-2.08261 10.435 12.3336 24.0516 17.2959 19.3622L18.0563 18.4858C18.2345 18.3207 18.3415 18.0928 18.3548 17.8503C18.368 17.6078 18.2864 17.3696 18.1272 17.1861Z" fill="#44506A"/>
</g>
<defs>
<clipPath id="clip0_11497_11121">
<rect width="20" height="20" fill="white" transform="translate(0 2)"/>
</clipPath>
</defs>
</svg>
