<svg width="32" height="32" viewBox="0 0 32 32" fill="none" xmlns="http://www.w3.org/2000/svg">
<g clip-path="url(#clip0_141_629)">
<g clip-path="url(#clip1_141_629)">
<path d="M15.9999 4C19.1144 6.75543 23.1792 8.19009 27.3333 8C27.9381 10.0574 28.1231 12.2153 27.8774 14.3456C27.6318 16.4759 26.9604 18.535 25.9031 20.4007C24.8459 22.2664 23.4245 23.9005 21.7232 25.206C20.022 26.5114 18.0757 27.4616 15.9999 28C13.9242 27.4616 11.9779 26.5114 10.2767 25.206C8.57542 23.9005 7.15395 22.2664 6.09674 20.4007C5.03952 18.535 4.36812 16.4759 4.12244 14.3456C3.87676 12.2153 4.06182 10.0574 4.66661 8C8.82065 8.19009 12.8855 6.75543 15.9999 4Z" stroke="#949494" stroke-width="1.5" stroke-linecap="round" stroke-linejoin="round"/>
<path d="M14.6665 14.6667C14.6665 15.0203 14.807 15.3595 15.057 15.6095C15.3071 15.8596 15.6462 16 15.9998 16C16.3535 16 16.6926 15.8596 16.9426 15.6095C17.1927 15.3595 17.3332 15.0203 17.3332 14.6667C17.3332 14.3131 17.1927 13.9739 16.9426 13.7239C16.6926 13.4739 16.3535 13.3334 15.9998 13.3334C15.6462 13.3334 15.3071 13.4739 15.057 13.7239C14.807 13.9739 14.6665 14.3131 14.6665 14.6667Z" stroke="#949494" stroke-width="1.5" stroke-linecap="round" stroke-linejoin="round"/>
<path d="M16 16V19.3333" stroke="#949494" stroke-width="1.5" stroke-linecap="round" stroke-linejoin="round"/>
</g>
</g>
<defs>
<clipPath id="clip0_141_629">
<rect width="32" height="32" fill="white"/>
</clipPath>
<clipPath id="clip1_141_629">
<rect width="32" height="32" fill="white"/>
</clipPath>
</defs>
</svg>
